<svg width="297" height="93" viewBox="0 0 297 93" fill="none" xmlns="http://www.w3.org/2000/svg">
<path d="M4.7275 83.216C6.3915 84.24 7.9275 84.752 12.0235 85.52C12.4075 85.52 12.4075 85.648 12.4075 86.16C12.1515 87.44 12.1515 88.848 12.4075 90.128C12.5355 90.512 12.6635 90.768 13.0475 91.024C13.5595 91.28 13.6875 91.28 14.1995 90.896C14.5835 90.64 14.5835 90.512 14.5835 88.592C14.5835 87.696 14.5835 86.8 14.7115 86.032C14.8395 85.52 14.9675 85.52 15.9915 85.52C24.6955 85.52 39.7995 77.328 52.3435 65.808C59.3835 59.28 65.7835 50.96 68.8555 44.176C72.1835 37.136 73.3355 31.888 73.0795 25.616C73.0795 13.072 64.2475 3.088 51.9595 0.655998C50.0395 0.399994 48.1195 0.271996 46.1995 0.271996C31.8635 0.271996 13.4315 11.024 7.1595 23.568C4.3435 29.2 4.8555 33.552 8.6955 36.368C11.5115 38.544 14.4555 38.672 17.9115 38.672C19.7035 38.672 21.4955 38.544 23.2875 38.288C23.9275 38.16 24.5675 38.032 25.2075 38.16C25.2075 38.16 24.6955 39.696 24.1835 41.488C20.3435 52.88 14.9675 72.464 13.3035 80.656L12.9195 83.088L11.7675 82.96C9.9755 82.704 8.3115 82.32 6.6475 81.552C3.8315 80.144 2.9355 78.224 3.8315 75.408C4.2155 74 4.2155 73.616 3.7035 73.232C3.5755 72.976 3.1915 72.848 2.9355 72.848C2.2955 73.104 2.0395 73.36 1.5275 74.64C0.3755 78.48 1.3995 81.04 4.7275 83.216ZM16.2475 78.736C18.6795 68.24 22.9035 53.52 26.7435 41.872L28.2795 37.264L29.1755 37.008C29.5595 36.88 30.0715 36.752 30.4555 36.496C31.2235 35.856 30.8395 34.576 29.8155 34.192C29.5595 34.192 29.4315 34.064 29.4315 33.936C29.4315 33.296 38.9035 9.104 39.6715 8.07999C40.4395 6.92799 41.0795 4.752 40.9515 3.856L40.8235 3.34399L41.9755 3.216C42.6155 3.088 44.7915 3.088 46.7115 3.088C49.7835 3.088 50.4235 3.088 51.9595 3.47199C62.5835 5.52 69.4955 13.84 70.3915 24.464C71.5435 37.136 63.0955 53.008 48.2475 65.936C38.3915 74.384 26.1035 81.424 18.8075 82.704C18.0395 82.832 16.8875 82.96 16.3755 83.088C15.4795 83.088 15.3515 83.088 15.3515 82.832C15.3515 82.704 15.7355 80.912 16.2475 78.736ZM19.9595 35.984C17.5275 36.368 14.9675 36.112 12.6635 35.344C10.2315 34.576 8.8235 33.296 8.3115 31.504C8.0555 29.712 8.1835 28.048 8.8235 26.512C11.6395 19.088 20.8555 10.896 31.2235 6.41599C33.2715 5.392 35.4475 4.62399 37.7515 4.112L38.2635 3.98399L37.8795 4.88C37.7515 5.392 37.3675 6.28799 37.1115 6.8C36.9835 7.43999 35.7035 10.512 34.4235 13.584C31.6075 20.368 29.8155 25.104 27.7675 30.608C26.9995 32.912 26.2315 34.832 26.2315 34.832C25.9755 35.088 22.0075 35.728 19.9595 35.984ZM99.7905 58C99.2785 57.36 98.6385 57.616 96.0785 59.28C90.5745 62.736 85.1985 65.424 81.3585 66.448C77.0065 67.728 75.9825 65.424 77.6465 58.512C77.9025 57.488 78.1585 56.464 78.1585 55.312C78.0305 54.544 77.3905 53.904 76.6225 53.776C76.2385 53.776 75.8545 53.648 75.5985 53.392C74.9585 52.88 74.3185 52.752 73.0385 52.752C69.0705 52.752 60.4945 58.64 60.4945 62.992C60.4945 63.376 60.7505 63.888 61.1345 64.144C61.6465 64.784 61.7745 64.784 62.7985 64.784C63.6945 64.912 64.4625 64.656 65.2305 64.272C67.6625 62.992 69.9665 61.328 72.1425 59.664C73.0385 58.896 73.9345 58.256 74.8305 57.744C74.9585 57.744 74.9585 58 74.7025 59.28C74.0625 61.968 74.0625 65.04 74.8305 66.576C75.3425 67.728 76.3665 68.624 77.5185 69.136C79.3105 69.648 81.7425 69.392 84.8145 68.112C88.2705 66.576 97.4865 61.84 99.9185 59.408C100.175 59.024 100.175 58.384 99.7905 58ZM66.6385 60.432C65.9985 60.816 65.3585 61.2 64.7185 61.584L63.6945 61.968C63.4385 61.968 64.0785 61.2 65.3585 59.792C66.7665 58.384 68.3025 57.232 70.0945 56.208C70.9905 55.824 73.0385 55.184 73.1665 55.312C73.2945 55.44 68.0465 59.408 66.6385 60.432ZM131.844 57.104C131.46 56.848 131.332 56.848 130.052 57.232C128.644 57.744 127.236 58.128 125.7 58.256C121.22 58.64 116.484 56.976 115.332 54.544C114.692 53.392 114.692 52.368 115.332 50.448C115.972 48.656 115.972 47.888 115.332 47.248C114.692 46.864 113.924 46.864 113.412 47.248C112.772 48.144 112.388 49.168 112.26 50.192C111.876 53.904 103.556 66.064 101.124 69.136C100.1 70.288 98.1795 71.824 97.9235 71.824C97.2835 71.568 97.4115 68.624 98.0515 65.936C98.5635 64.4 101.508 55.056 102.788 55.056C103.172 55.184 103.556 54.928 103.812 54.672C104.196 54.288 104.196 54.032 104.324 52.752C104.58 50.832 104.196 50.192 102.916 50.192C102.532 50.192 102.276 50.32 101.764 50.96C98.9475 54.032 94.8515 65.424 94.8515 70.032C94.8515 72.464 95.3635 73.616 96.7715 74.256C99.0755 75.28 102.148 72.72 106.5 66.448C107.652 64.656 111.492 58.256 112.644 56.336L112.9 55.824L113.412 56.464C114.436 57.872 116.74 59.408 119.172 60.048C121.22 60.688 123.396 60.816 125.7 60.688C128.388 60.304 131.588 59.408 132.1 58.768C132.484 58.256 132.356 57.488 131.844 57.104ZM134.547 50.96C134.675 50.96 134.803 50.96 134.803 51.088C135.059 51.088 135.955 50.192 136.339 49.552C136.467 49.296 136.723 49.04 136.979 48.912C137.491 48.784 137.875 48.144 138.259 46.608L138.643 45.328L138.387 44.944C137.747 44.176 137.235 44.048 136.595 44.432C136.083 44.816 133.651 49.296 133.651 49.936C133.651 50.448 134.035 50.832 134.547 50.96ZM160.275 57.36C160.019 57.36 157.331 58.256 154.259 59.152C143.763 62.608 137.619 64.272 134.419 64.272C132.243 64.272 131.219 63.504 130.963 62.224C130.835 61.072 131.091 59.792 131.603 58.64C131.859 57.872 132.115 57.616 132.499 57.488C132.883 57.36 133.139 56.976 133.651 56.08C134.419 54.544 134.547 53.776 133.907 53.136C133.139 52.496 132.371 52.624 131.347 53.776C130.067 55.44 129.171 57.232 128.531 59.152C128.147 60.688 128.147 62.352 128.659 63.888C129.427 65.552 130.963 66.704 132.883 66.832C134.931 67.216 138.259 66.704 144.147 65.04C149.779 63.376 160.659 59.664 161.171 59.28C161.427 58.896 161.427 58.384 161.299 58C161.043 57.616 160.659 57.36 160.275 57.36ZM208.713 0.911995C208.457 0.655998 208.073 0.399994 207.689 0.399994C203.721 0.399994 192.713 24.208 191.177 27.792C190.025 30.736 189.513 31.504 185.417 36.496C181.833 41.104 177.097 46.48 172.105 51.856L171.081 53.008H168.905C167.753 52.88 166.601 53.008 165.449 53.392C164.553 53.776 163.657 54.16 162.889 54.672C160.457 56.08 157.769 59.152 157.001 61.456C156.489 62.224 156.489 63.12 156.873 63.888C157.257 64.784 158.025 65.296 158.921 65.296C161.225 65.296 165.193 62.736 169.929 57.872C170.441 57.36 171.081 56.72 171.593 56.336C171.977 56.464 172.233 56.848 172.489 57.104C173.001 57.616 173.385 57.872 173.641 57.872C174.409 57.744 174.921 57.232 175.049 56.464C174.921 55.824 174.537 55.056 173.897 54.672L173.513 54.288L175.177 52.496C178.505 48.784 181.193 45.84 183.753 42.64C185.289 40.976 186.441 39.44 186.569 39.44C186.441 39.568 186.057 41.104 185.417 43.152C181.705 54.544 178.761 66.192 176.585 78.096C175.305 86.16 175.049 90.896 176.201 92.56C176.329 92.816 176.713 92.944 176.969 92.944C177.353 92.944 177.609 92.816 177.865 92.688C178.121 92.304 178.121 92.176 177.993 90.768C177.609 87.952 177.865 85.136 178.889 78.992C181.193 65.936 184.649 53.264 189.001 40.72C191.433 34.064 192.201 32.144 193.481 30.352C201.417 19.728 209.225 5.64799 209.225 2.19199C209.353 1.67999 209.097 1.168 208.713 0.911995ZM201.289 13.456C201.289 13.712 201.161 13.84 201.033 13.84C201.033 13.84 201.033 13.712 201.161 13.456C201.289 13.328 201.417 13.072 201.417 13.072C201.545 13.072 201.417 13.328 201.289 13.456ZM161.097 61.712C159.305 62.864 159.177 62.736 160.073 61.072C161.225 59.28 162.889 57.744 164.809 56.72C166.089 56.08 168.009 55.44 168.265 55.696C166.473 57.872 163.401 60.304 161.097 61.712ZM221.499 41.104C222.139 44.56 224.444 46.608 227.644 46.224C229.564 46.096 232.508 44.944 233.532 44.048C233.788 43.792 233.916 43.536 233.916 43.152C233.916 42.768 233.788 42.512 233.532 42.256C233.02 41.744 232.38 41.744 231.228 42.384C228.924 43.536 226.62 43.92 225.596 43.28C224.444 42.512 223.803 40.208 224.188 37.392C225.084 26.768 234.3 10 244.284 4.752C245.052 4.24 246.076 3.98399 247.1 4.112C248.764 4.112 249.532 4.49599 250.3 6.032C250.684 6.92799 250.684 7.184 250.684 9.744C250.812 11.536 250.556 13.2 250.044 14.864C248.764 19.984 246.588 24.848 239.932 38.544C230.844 57.488 223.419 74 220.987 81.424L220.347 83.6L219.835 83.344C218.939 82.96 218.939 82.064 219.707 80.784C220.347 79.632 220.347 78.992 219.707 78.48C217.787 77.072 215.483 81.552 216.891 84.112C217.403 85.008 218.299 85.776 219.323 86.16C219.835 86.288 220.219 86.544 220.603 86.8C221.115 87.44 221.627 87.44 222.139 86.8C222.523 86.544 222.907 86.416 224.188 86.16C225.084 86.032 227.004 85.52 228.411 85.136C236.348 83.216 238.14 82.704 241.212 82.064C246.332 81.04 248.38 80.784 251.836 80.784C255.164 80.784 256.06 81.04 256.956 81.936C257.083 82.192 257.468 82.448 257.724 82.448C258.108 82.448 258.492 82.448 258.748 82.192C259.772 81.296 258.364 79.504 256.06 78.864C254.908 78.48 254.524 78.48 251.452 78.48C246.076 78.48 240.7 79.376 230.972 81.808C226.876 82.832 223.419 83.728 223.035 83.728C222.395 83.728 225.98 74.512 230.972 63.504C234.3 56.208 236.86 50.704 242.236 39.952C248.892 26.384 250.172 23.312 251.836 18.192C254.268 10.64 254.012 5.392 251.068 2.70399C250.044 1.808 248.764 1.296 247.356 1.296C244.412 1.296 240.956 3.088 237.244 6.672C230.076 13.584 224.059 24.08 222.011 33.552C221.371 35.984 221.243 38.544 221.499 41.104ZM270.789 56.848C270.149 56.976 269.381 57.232 268.741 57.616C263.621 59.792 250.693 64.912 245.189 64.912C244.165 64.912 243.397 64.784 242.885 64.4C242.245 64.016 241.989 63.12 242.245 61.968L242.373 61.072L243.013 61.2C243.781 61.456 244.549 61.2 245.701 60.56C248.645 59.152 252.101 55.056 252.101 53.136C252.101 51.728 250.821 50.832 249.541 50.832C246.085 50.832 241.861 55.44 240.453 58.64C239.3 61.456 239.172 63.76 240.069 65.168C240.709 66.192 241.733 66.96 242.885 67.344C245.573 67.984 249.669 67.216 257.605 64.528C263.365 62.608 270.661 59.536 271.557 58.768C271.812 58.512 271.941 58 271.812 57.616C271.557 57.232 271.301 56.976 270.789 56.848ZM246.085 55.568C246.981 54.672 248.901 53.52 249.029 53.648C248.901 54.032 248.645 54.416 248.26 54.8C247.237 56.08 246.085 57.232 244.677 58.128L243.781 58.64C243.525 58.64 245.061 56.592 246.085 55.568ZM295.039 56.848C294.399 56.976 293.631 57.232 292.991 57.616C287.871 59.792 274.943 64.912 269.439 64.912C268.415 64.912 267.647 64.784 267.135 64.4C266.495 64.016 266.239 63.12 266.495 61.968L266.623 61.072L267.263 61.2C268.031 61.456 268.799 61.2 269.951 60.56C272.895 59.152 276.351 55.056 276.351 53.136C276.351 51.728 275.071 50.832 273.791 50.832C270.335 50.832 266.111 55.44 264.703 58.64C263.55 61.456 263.422 63.76 264.319 65.168C264.959 66.192 265.983 66.96 267.135 67.344C269.823 67.984 273.919 67.216 281.855 64.528C287.615 62.608 294.911 59.536 295.807 58.768C296.062 58.512 296.191 58 296.062 57.616C295.807 57.232 295.551 56.976 295.039 56.848ZM270.335 55.568C271.231 54.672 273.151 53.52 273.279 53.648C273.151 54.032 272.895 54.416 272.51 54.8C271.487 56.08 270.335 57.232 268.927 58.128L268.031 58.64C267.775 58.64 269.311 56.592 270.335 55.568Z" fill="black"/>
</svg>
