<svg width="231" height="79" viewBox="0 0 231 79" fill="none" xmlns="http://www.w3.org/2000/svg">
<path d="M0.93975 76.76C1.06775 76.824 1.19575 76.824 1.32375 76.888C2.21975 77.208 3.17975 77.464 4.07575 77.656L4.90775 77.848C6.31575 78.104 7.72375 78.168 9.19575 78.168C18.6678 78.168 29.4198 73.752 37.3558 68.952C46.5718 63.256 53.6758 55.512 59.1158 46.104C61.6758 41.624 63.4038 36.568 63.4038 31.384C63.4038 24.536 59.5638 17.304 52.2038 16.408C51.2438 16.28 50.3478 16.152 49.3878 16.152C43.8838 16.152 37.9958 18.84 33.5798 21.976L33.9638 19.672C34.1558 18.328 34.4118 16.92 34.4118 15.512V15.128C34.2838 14.104 33.6438 13.464 32.9398 13.336H32.6838C32.2358 13.336 31.7878 13.464 31.2758 13.784C27.5638 16.728 24.1078 26.84 23.1478 31.192C23.0198 31.704 22.8918 32.088 22.6358 32.472C15.6598 41.176 9.00375 54.36 9.00375 65.816V66.328C9.00375 68.184 9.19575 71.256 11.4997 71.64C11.6917 71.704 11.8197 71.704 12.0117 71.704C12.6517 71.704 13.2278 71.448 13.6758 71.064C14.3158 70.552 14.7638 69.912 15.2758 69.272C16.5558 67.416 17.7078 65.496 18.6678 63.448C22.6998 55.512 25.6438 47.128 28.5238 38.68C30.0598 34.264 31.4678 29.848 32.6838 25.304C32.8758 23.896 39.0198 20.504 40.2998 19.864C43.4358 18.392 46.7638 17.304 50.2838 17.304C50.9238 17.304 51.4998 17.368 52.0118 17.496C56.5558 18.264 58.9238 21.528 60.4598 25.56C61.0358 27.48 61.2918 29.4 61.2918 31.32C61.2918 32.408 61.2278 33.496 61.0358 34.648L60.9078 35.16C59.5638 43.16 54.0598 50.84 48.8118 56.792C39.5318 67.096 28.1398 73.624 14.6358 76.632C12.6517 77.08 10.6677 77.272 8.68375 77.272C7.72375 77.272 6.76375 77.272 5.80375 77.144L4.90775 77.016L2.41175 76.44C2.15575 76.312 1.83575 76.184 1.51575 76.184L1.13175 76.12H1.00375C0.87575 76.12 0.747749 76.184 0.683749 76.312C0.683749 76.504 0.811749 76.632 0.93975 76.76ZM23.1478 48.664C21.0358 54.232 16.8118 65.624 12.6517 70.04C12.1397 70.488 11.8837 70.68 11.6917 70.68C10.8597 70.488 10.7318 66.968 10.7318 66.328V65.048C11.8837 54.68 15.7238 45.656 21.6118 37.016C21.8038 36.76 21.9318 36.504 22.2517 36.248C22.3158 36.504 22.3158 36.696 22.3158 36.952C22.3158 37.592 22.1878 38.168 22.1878 38.744C22.1878 41.944 22.1878 44.568 23.2118 47.704C23.2758 47.896 23.2758 48.088 23.2758 48.216C23.2758 48.408 23.2118 48.536 23.1478 48.664ZM24.0438 45.912C23.7878 45.592 23.8518 45.208 23.7878 44.824C23.6598 43.608 23.5958 42.392 23.5958 41.176C23.5958 39.448 23.6598 34.52 24.5558 33.048C25.1318 32.344 29.5478 27.224 30.0598 27.224V27.544C29.6118 30.04 25.1318 43.864 24.0438 45.912ZM31.4038 22.872C31.3398 23.448 31.0198 23.96 30.5078 24.28C28.9078 25.56 27.4358 26.968 26.0918 28.504C25.9638 28.632 25.7718 28.888 25.5158 28.952C25.5158 28.824 25.5158 28.632 25.5798 28.44C26.0278 25.56 29.8678 16.536 32.5558 14.744C32.6198 15.064 32.6198 15.384 32.6198 15.704C32.6198 16.024 32.6198 16.28 32.5558 16.6C32.5558 17.304 32.4278 17.944 32.2998 18.648C32.1078 20.056 31.7238 21.464 31.4038 22.872ZM69.9448 54.04C70.1368 53.784 70.5848 53.656 70.9048 53.656C71.1608 53.656 71.2888 53.72 71.1608 53.912C70.9048 54.808 70.2008 56.28 70.2008 57.432C70.2008 58.392 70.6488 59.096 72.2488 59.096C72.5688 59.096 72.8888 59.096 73.2728 59.032C76.0248 58.648 82.6808 54.616 84.4728 53.528C85.1128 53.144 85.9448 52.696 85.9448 52.44C85.9448 52.376 85.8808 52.312 85.5608 52.248H85.2408C83.9608 52.248 75.7688 57.304 73.1448 58.264C73.0808 58.328 72.9528 58.328 72.8888 58.328C72.6968 58.328 72.4408 58.2 72.3767 58.008C71.8008 56.344 74.2328 51.672 75.0008 50.136C75.0648 49.944 75.1288 49.816 75.1288 49.688C75.1288 49.368 74.8088 49.176 73.9128 49.176C72.9528 49.24 72.3128 49.752 71.5448 50.392C71.3528 48.92 71.0328 46.936 69.1768 46.936C68.5368 46.936 67.8328 47.128 67.3848 47.512C65.0168 49.432 59.7047 55.256 59.7047 59.864C59.7687 60.44 60.2807 60.632 60.9207 60.632C63.4808 60.632 68.4088 55.768 69.9448 54.04ZM68.9208 48.088C69.8808 47.896 69.7528 52.12 68.7928 53.464C68.4728 53.848 62.7767 59.672 61.7527 59.672C61.7527 58.968 62.0087 54.488 68.9208 48.088ZM101.043 52.376C98.9953 53.464 94.3873 55.512 92.0833 55.96L91.6993 56.024C91.4433 56.024 91.2513 55.96 91.0593 55.64C90.9953 55.512 90.9313 55.448 90.9313 55.384C90.9313 55.128 91.2513 55 91.3793 54.808C92.5312 53.144 96.3073 47.512 96.6273 45.528L96.6913 45.208C96.6913 44.44 95.9873 44.12 95.2833 44.12C94.6433 44.12 94.0033 44.376 93.5553 44.696C91.5713 46.296 88.7552 51.864 88.7552 54.552C88.7552 55.064 88.8833 55.32 88.8833 55.512C88.8833 56.216 85.9393 59.224 85.3633 59.736C85.1713 59.864 85.0433 60.12 84.6593 60.12C84.7873 57.944 85.4913 55.192 85.8753 53.016V52.824C85.8753 52.312 85.6193 52.12 85.0433 52.12C84.5953 52.12 84.3392 52.312 84.2752 52.76C83.8912 55.064 83.2512 57.56 83.1232 59.864V60.056C83.1232 60.952 83.5072 61.272 84.2752 61.272H84.7233C86.1953 61.208 88.8193 58.136 89.6513 57.112C89.8433 56.856 90.0353 56.728 90.2913 56.728C90.6113 56.728 91.0593 56.984 91.8273 56.984C92.3393 56.984 92.9792 56.856 93.8113 56.6C96.4993 55.704 98.9953 54.488 101.555 53.208L101.939 53.016C102.131 52.824 102.387 52.76 102.387 52.568L102.323 52.44C102.259 52.248 102.067 52.184 101.811 52.184C101.555 52.184 101.235 52.248 101.043 52.376ZM94.7073 45.912C93.8753 48.28 92.5312 50.328 91.1873 52.504C91.1873 51.032 93.2993 47.128 94.7073 45.912ZM116.329 52.44C116.329 52.12 116.265 51.928 115.753 51.928C115.433 51.928 115.177 52.056 114.921 52.312C112.681 54.872 106.217 58.648 102.889 59.224C102.697 59.224 102.505 59.288 102.377 59.288C101.353 59.288 101.033 58.648 101.033 57.752C101.033 55.96 102.377 53.208 103.465 52.696C103.465 52.696 103.529 52.632 103.529 52.504C103.529 52.248 103.337 51.864 102.313 51.736H102.185C101.737 51.736 101.225 51.928 101.033 52.184C99.9447 53.912 99.1767 55.832 98.9847 57.944V58.136C98.9847 59.864 101.033 60.248 102.505 60.248C103.977 60.248 105.193 59.928 106.793 59.16C109.161 58.072 114.793 54.872 116.329 52.44ZM104.553 47.32C104.809 47.32 105.001 47.32 105.193 47.064C105.321 46.936 105.385 46.744 105.385 46.552C105.385 45.912 105.001 45.656 104.361 45.656C103.977 45.656 103.657 45.784 103.465 46.04C103.337 46.168 103.273 46.36 103.273 46.552C103.273 46.744 103.337 46.936 103.465 47.064C103.657 47.32 103.849 47.32 104.041 47.32H104.553ZM130.327 43.608C129.303 46.424 125.591 54.808 125.399 57.624V57.88C125.399 59.224 126.423 59.608 127.319 59.608C127.767 59.608 128.151 59.544 128.407 59.416C131.095 58.456 134.615 55 136.855 53.208C137.047 53.016 137.111 52.888 137.111 52.76C137.111 52.568 136.919 52.44 136.599 52.44C136.343 52.44 136.023 52.504 135.767 52.76C134.231 54.104 130.327 57.496 128.535 58.392C128.087 58.584 127.767 58.712 127.511 58.712C127.255 58.712 127.127 58.52 127.127 58.072V57.816C127.127 55.384 130.391 47.768 131.223 45.656C133.335 40.216 135.447 34.776 137.303 29.208C137.495 28.696 137.623 28.184 137.751 27.672V27.48C137.751 27.096 137.367 26.84 136.855 26.84C136.471 26.84 135.959 27.032 135.703 27.416C134.807 28.568 132.311 33.816 131.543 35.352C128.727 41.24 126.423 45.144 122.647 50.456C121.687 49.432 120.727 48.92 119.767 48.92C116.695 48.92 112.023 55.64 112.023 58.392C112.023 59.544 112.855 59.928 113.815 59.928C114.455 59.928 115.159 59.736 115.735 59.48C121.815 56.28 129.239 43.672 132.247 37.72C132.375 37.464 132.503 37.144 132.759 36.888V37.08C132.759 37.272 132.695 37.464 132.631 37.656L130.327 43.608ZM120.855 52.76C119.255 54.616 116.631 57.752 114.455 58.84C114.263 58.968 114.135 59.032 114.007 59.032C113.815 59.032 113.751 58.776 113.751 58.264C114.391 55.384 116.311 52.568 118.615 50.648C119.127 50.2 119.511 50.008 119.831 50.008C120.407 50.008 121.175 51.352 121.175 51.928C121.175 52.248 121.111 52.504 120.855 52.76ZM160.156 74.904C163.612 74.904 167.004 73.304 169.372 70.808C169.628 70.552 169.82 70.36 170.204 70.36H170.332C171.036 70.488 171.804 70.552 172.572 70.616C176.028 70.936 179.484 71.448 182.94 71.96C187.484 72.6 192.092 73.304 196.636 73.88C199.708 74.328 202.844 74.712 205.916 74.968C208.028 75.096 210.14 75.096 212.188 75.544C212.508 75.544 212.828 75.544 213.148 75.544C213.34 75.48 213.596 75.416 213.596 75.16C213.596 74.904 213.404 74.84 213.212 74.776C212.572 74.52 211.932 74.456 211.292 74.392C208.796 74.136 206.236 73.88 203.74 73.56C196.636 72.728 189.596 71.512 182.556 70.424C178.844 69.848 175.132 69.336 171.42 69.016C171.292 69.016 171.164 69.016 171.036 68.824C171.1 68.76 171.1 68.696 171.164 68.568C172.7 66.264 173.788 63.64 174.748 60.952C176.732 55.256 178.14 49.368 179.548 43.48C181.148 36.824 182.62 30.104 184.348 23.448C184.476 22.808 184.796 22.232 185.116 21.656C188.892 16.088 192.86 9.432 194.844 2.904C194.972 2.456 195.036 2.072 195.036 1.688L194.972 1.24C194.908 0.599998 194.588 0.215996 194.012 0.0879974C193.82 0.0879974 193.628 0.0239983 193.372 0.0239983C192.668 0.0239983 192.092 0.215996 191.452 0.663998C186.972 5.144 183.58 17.24 181.98 23.128C181.852 23.64 181.596 24.152 181.276 24.6C180.188 26.2 179.1 27.8 177.948 29.4C176.86 30.936 175.708 32.472 174.364 33.816C173.916 34.264 173.532 34.712 172.828 34.712C172.7 34.776 172.508 34.84 172.508 35.032C172.508 35.224 172.7 35.288 172.828 35.352C173.02 35.352 173.212 35.416 173.34 35.416C173.852 35.416 174.3 35.224 174.684 34.968C175.452 34.52 176.092 33.88 176.732 33.176C177.884 31.96 178.844 30.616 179.804 29.336C179.996 29.08 180.124 28.76 180.444 28.632V29.208C178.652 36.568 177.116 43.928 175.132 51.224C173.724 56.984 172.124 63.192 168.988 68.312C168.732 68.696 168.412 68.824 167.9 68.824C167.068 68.76 166.172 68.76 165.276 68.76H164.188C162.396 68.824 154.844 69.4 154.844 72.024C154.844 74.072 158.62 74.904 160.156 74.904ZM192.988 1.624C193.052 1.816 193.052 1.944 193.052 2.072C193.052 2.456 192.924 2.84 192.796 3.224C191.58 7.576 189.34 11.672 187.1 15.512C186.908 15.704 186.844 16.024 186.396 16.152C188.124 11.032 189.66 5.976 192.988 1.624ZM157.916 71.32C159.644 70.296 163.484 70.168 165.404 70.168H167.324V70.36C165.404 72.408 163.036 73.688 160.22 73.88C159.324 73.88 158.492 73.688 157.788 73.112C157.468 72.792 157.276 72.536 157.276 72.216C157.276 71.896 157.468 71.64 157.916 71.32ZM209.567 54.424C209.503 54.68 209.503 54.936 209.503 55.192C209.503 56.792 210.783 58.456 213.599 58.456H213.855C218.463 58.456 228.383 55.32 230.623 52.76C230.751 52.696 230.751 52.568 230.751 52.504C230.751 52.248 230.431 52.12 230.047 52.12C229.791 52.12 229.407 52.184 229.151 52.44C226.399 54.872 217.567 57.176 213.855 57.304H213.727C212.383 57.304 211.615 56.216 211.615 55.064C211.615 54.552 211.807 53.976 212.127 53.592C212.255 53.464 212.447 53.4 212.575 53.4C212.895 53.4 213.343 53.528 213.919 53.528C214.239 53.528 214.623 53.528 215.007 53.4C217.567 52.824 219.103 53.08 220.063 50.84C220.255 50.52 220.319 50.2 220.319 49.944C220.319 48.792 219.167 48.152 218.463 48.152C214.239 48.152 211.999 51.352 211.743 51.48C211.295 51.672 210.783 51.8 210.719 52.312C210.655 52.376 210.591 52.376 210.591 52.44C207.775 54.872 195.359 58.52 191.711 58.648H191.455C191.135 58.648 190.879 58.584 190.623 58.328C190.623 58.2 190.559 58.136 190.559 58.008C190.559 57.816 190.687 57.624 190.815 57.432C191.519 56.024 192.543 54.808 193.503 53.592C193.631 53.464 193.823 53.4 193.951 53.4C194.271 53.4 194.719 53.528 195.295 53.528C195.615 53.528 195.999 53.528 196.383 53.4C198.943 52.824 200.607 51.352 201.631 49.112C201.759 48.856 201.823 48.6 201.823 48.344C201.823 47.384 200.799 46.936 199.775 46.936C199.519 46.936 199.263 46.936 199.007 47C196.959 47.512 193.695 51.16 193.119 51.48C192.607 51.672 192.031 51.8 192.031 52.568L192.095 52.632C192.095 52.76 191.839 52.824 191.711 53.016C190.623 54.296 189.215 55.704 188.447 57.24C188.319 57.56 188.255 57.816 188.255 58.072C188.255 59.544 190.815 59.8 191.711 59.8C196.511 59.8 205.727 56.472 209.567 54.424ZM218.335 49.624C218.591 49.88 218.655 50.136 218.655 50.392C218.655 51.608 216.159 52.568 213.855 52.568H213.151C215.583 50.072 217.055 49.432 217.823 49.432C218.079 49.432 218.271 49.496 218.335 49.624ZM199.839 48.088C199.839 50.2 197.087 52.568 194.783 52.568H194.527C196.191 50.84 197.791 49.176 199.839 48.088Z" fill="black"/>
</svg>
