<svg width="765" height="140" viewBox="0 0 765 140" fill="none" xmlns="http://www.w3.org/2000/svg">
<path d="M93.0279 6.544C94.1799 3.376 90.1479 1.93599 88.7079 2.70399C86.6919 5.488 84.2919 9.04 81.7959 12.88C70.4679 7.984 58.1799 5.104 47.5239 3.95199C42.6279 3.376 37.7319 3.18399 33.4119 3.18399C22.8519 3.18399 14.4999 4.43199 9.02787 6.44799C4.70787 8.272 0.195875 11.056 2.11587 16.336C2.69187 17.968 3.84387 19.6 6.14787 19.888C8.73987 20.176 11.7159 17.584 9.02787 16.144C7.87587 15.472 6.05187 14.992 6.14787 14.416C6.91587 12.88 8.54787 11.344 11.7159 10.288C16.8039 8.36799 24.4839 7.216 34.1799 7.216C38.3079 7.216 43.0119 7.40799 48.0039 7.88799C57.3159 9.04 68.7399 11.92 79.2999 16.72C64.3239 39.76 42.9159 76.144 28.6119 102.736C19.2039 105.712 12.0039 108.88 9.60387 111.952C8.73987 113.104 8.25987 114.256 8.25987 115.312C8.25987 117.136 9.41187 118.864 11.3319 120.208H11.2359C12.6759 121.168 15.1719 122.032 18.3399 122.704C17.4759 124.432 16.7079 126.064 16.1319 127.504C15.0759 129.904 14.6919 131.728 14.6919 133.072C14.6919 135.568 16.0359 136.336 16.8999 136.336C18.5319 136.144 19.6839 135.088 19.2999 133.84L18.8199 133.36L18.9159 133.264C19.0119 132.496 19.4919 131.248 20.5479 129.424L23.8119 123.376L26.0199 123.664C27.8439 123.856 29.5719 123.856 31.4919 123.856C54.6279 123.856 87.0759 112.624 104.836 91.408L105.124 91.312L109.06 90.832C117.028 89.968 124.804 89.296 131.812 89.104C133.636 89.104 134.404 88.528 134.404 87.952C134.404 86.992 132.58 85.936 129.508 85.84C125.572 85.744 115.78 86.032 108.292 86.896C113.572 79.12 117.028 70.288 117.604 60.208C118.66 38.704 104.548 24.304 86.7879 15.28C88.9959 12.112 91.0119 9.232 93.0279 6.544ZM111.94 58.864C111.364 70 107.14 79.6 100.804 87.76H100.708C86.4999 89.488 57.8919 94.48 36.3879 100.432C51.7479 72.592 69.6039 41.104 84.1959 19.12C100.228 27.472 113.092 40.528 111.94 58.864ZM30.4359 119.824H28.0359L25.8279 119.632L33.0279 106.48C35.0439 105.808 36.9639 105.328 38.3079 104.944C54.2439 100.144 76.4199 95.536 96.6759 92.56C79.6839 110.32 51.7479 119.824 30.4359 119.824ZM13.6359 115.504C15.4599 113.68 20.0679 111.472 24.9639 109.456C23.1399 112.912 21.5079 116.176 20.0679 119.152C17.0919 118.672 11.3319 117.328 13.6359 115.504ZM152.667 94C152.859 97.84 156.315 102.448 160.443 102.832C170.619 103.888 198.075 76.72 195.771 75.088C195.291 74.704 194.523 75.088 193.947 75.568C188.667 79.696 160.443 102.16 158.427 97.552C158.331 97.36 158.043 96.4 158.139 94.96C158.907 86.992 163.707 80.56 168.795 75.472C169.467 74.704 168.411 73.36 167.547 72.496C166.395 71.44 165.435 71.056 164.091 72.016C163.515 72.688 162.747 73.264 162.075 73.84C161.883 73.264 161.499 72.688 161.211 72.208C159.675 70.192 157.659 68.944 154.971 68.752C143.163 67.888 127.803 86.224 127.323 96.784C127.131 101.008 132.027 103.6 135.291 102.064C140.379 99.76 148.443 92.272 153.531 87.952C152.859 89.68 152.571 92.176 152.667 94ZM132.795 97.936C133.467 91.216 138.939 83.728 143.259 79.216C147.483 75.28 152.187 73.072 155.067 73.072C156.795 73.072 158.139 74.128 158.139 75.664C158.139 76.528 157.659 77.584 156.603 78.544C142.875 90.448 138.075 94.48 132.795 97.936ZM191.117 105.712C200.429 110.512 217.133 86.128 220.781 80.08C222.893 80.848 225.869 81.136 228.941 81.136C239.021 81.136 251.405 77.968 249.965 75.76C249.293 74.704 248.237 74.896 247.085 75.088C244.013 75.952 236.621 77.008 230.957 77.008C228.173 77.008 225.773 76.624 224.045 75.376L224.909 73.744C225.485 72.112 221.549 70.192 220.109 71.344C218.957 72.4 218.285 73.36 218.285 74.224V75.376C212.429 85.072 195.437 103.696 191.597 101.008C190.061 99.568 192.077 92.656 193.133 89.008C195.245 82.192 199.565 75.568 203.021 72.4C205.709 70.384 200.429 67.12 198.605 68.944H198.701C191.213 76.336 186.029 88.528 185.933 96.976C185.933 100.048 188.333 104.272 191.117 105.712ZM236.489 93.136C236.105 94.288 235.913 95.344 235.913 96.4C235.913 100.912 239.177 104.56 243.401 104.464C252.617 104.272 275.849 85.936 281.513 79.792C283.721 77.488 285.929 73.84 284.489 73.648C283.529 73.552 283.049 73.936 282.665 74.32C270.857 85.072 245.033 101.392 241.193 99.376C237.833 97.648 254.921 72.976 256.457 70.576C256.745 69.904 256.073 68.56 255.209 67.792C253.769 66.544 251.465 66.832 251.081 68.176C245.129 76.528 238.697 85.744 236.489 93.136ZM260.297 58.864C263.273 60.208 268.553 54.736 268.745 51.952C268.745 49.936 267.209 48.592 265.577 48.592C264.617 48.592 263.561 49.072 262.985 50.32C262.025 52.336 259.913 55.024 258.569 56.176C258.185 56.656 257.897 56.944 259.817 58.672L260.297 58.864ZM289.361 132.88C290.609 133.84 291.281 133.36 291.953 133.072C292.625 132.4 292.145 131.152 291.569 130.384C293.489 120.304 296.081 111.856 299.249 103.696C303.761 91.792 310.865 76.624 320.945 58.288L323.249 54.064L323.153 54.16L325.457 50.704C329.681 44.368 337.361 31.984 341.105 24.592C341.969 22.384 337.841 19.312 336.497 21.328C331.505 29.2 322.769 43.888 318.737 50.896V50.8C318.545 50.992 318.353 51.472 318.161 51.664C313.457 58.576 308.369 65.392 303.377 71.152L302.225 70C299.825 68.56 297.617 68.08 295.409 68.08C284.561 68.08 273.329 81.136 269.873 90.064C269.201 91.792 268.817 93.52 268.817 95.152C268.817 99.184 272.273 101.968 275.825 101.968C276.785 101.968 277.841 101.776 278.705 101.296C289.169 96.112 298.097 84.688 304.721 77.2C297.809 91.984 289.745 110.8 288.209 125.104C287.825 128.272 288.209 132.016 289.361 132.88ZM274.769 97.744C274.193 96.88 274.097 94.768 275.249 91.792C276.593 88.336 279.185 84.208 281.777 81.136C286.481 75.952 292.241 71.728 296.273 71.728C298.673 71.728 299.825 73.36 299.537 75.472C294.161 82.288 277.649 97.264 274.769 97.744ZM424.307 115.984C438.131 109.264 451.283 101.392 450.419 91.024C449.555 80.08 421.715 73.84 412.019 71.152C402.035 68.368 389.363 65.2 388.979 60.4C387.347 42.16 462.323 4.528 482.483 6.92799C484.307 7.024 486.035 7.59999 487.475 8.17599C489.203 8.944 490.355 10.48 490.547 12.208L490.451 12.112C490.547 13.072 491.411 14.224 493.139 14.512C494.771 14.8 496.019 13.84 495.827 12.688C495.155 8.752 492.179 6.44799 488.339 4.528C486.707 3.856 484.403 3.27999 481.715 2.99199C457.235 0.399998 379.955 37.264 383.315 60.592C384.467 68.848 398.387 71.344 410.483 74.608C419.699 77.104 442.259 82.672 444.275 90.448C446.291 98.128 434.195 105.712 421.715 112.336C413.171 116.272 392.531 122.608 379.955 122.608C377.651 122.608 375.635 122.416 374.003 121.936C372.659 121.168 370.163 122.224 370.835 123.856C371.603 125.392 374.963 126.16 379.667 126.16C391.571 126.16 412.307 121.648 424.307 115.984ZM488.493 102.16C487.053 104.08 487.245 106.864 489.261 106.864C491.469 107.44 493.485 106.672 495.213 105.328C495.981 102.736 495.405 102.064 495.213 101.776C495.021 100.912 494.061 100.048 491.661 100.528C491.373 100.528 488.493 101.872 488.493 102.16ZM663.694 52.816C670.126 41.968 675.982 27.184 675.982 16.816C675.982 10.768 673.966 6.15999 669.07 4.71999C664.174 3.568 658.222 7.11999 653.23 12.208C637.39 28.72 623.662 54.736 604.174 86.224C602.446 89.008 600.814 91.6 599.182 93.904H598.606C581.038 93.904 554.158 82 557.23 68.08C557.902 65.008 555.598 63.376 554.35 65.488C553.678 66.832 553.582 70.384 553.966 72.016C557.71 89.008 579.79 97.552 596.11 98.416C584.014 115.312 577.39 118.096 575.182 117.904C569.422 117.904 559.438 118.864 553.87 120.496C551.47 122.128 553.966 126.736 555.79 126.832C559.822 126.928 568.654 125.68 575.278 123.76H575.374C580.27 123.28 586.414 123.088 593.23 123.088C627.118 123.088 678.766 128.272 692.014 136.912C692.014 137.872 692.206 138.736 693.262 138.928C695.182 139.312 696.046 138.16 696.046 136.816C696.046 135.472 695.278 133.936 693.934 133.36C683.278 127.312 654.382 122.608 639.502 120.976C623.854 119.344 605.614 117.52 589.966 117.52C588.43 117.52 586.99 117.616 585.55 117.616C591.31 113.296 595.822 108.688 603.022 98.416C629.806 96.4 651.79 73.072 663.694 52.816ZM609.55 88.624C626.542 59.824 642.574 32.272 658.126 14.896V14.992C662.926 10.096 667.246 7.696 668.878 9.04C670.318 10.192 670.894 12.304 670.894 15.088C670.894 23.632 665.038 38.416 658.702 49.456C647.95 67.888 630.382 88.72 606.67 93.136L609.55 88.624ZM694.441 74.512C693.673 69.424 687.817 67.696 684.265 68.56C675.529 70.48 664.105 83.632 664.681 94.768C664.969 100.24 670.057 104.944 675.337 104.848C691.753 104.464 722.665 79.504 721.993 73.36C721.897 72.688 720.937 73.936 720.265 74.224C712.489 80.56 706.825 85.072 698.089 90.352C687.817 96.496 678.409 99.76 673.609 99.76C672.265 99.76 671.209 99.472 670.729 98.992C670.153 98.32 669.865 97.264 669.865 95.92C669.865 94.48 670.153 92.56 670.825 90.64C683.497 91.984 695.113 81.904 694.441 74.512ZM674.953 82.384C677.929 77.872 686.089 71.344 688.873 72.88C690.985 75.184 682.249 86.8 672.361 86.8C673.033 85.36 673.993 83.824 674.953 82.384ZM736.441 74.512C735.673 69.424 729.817 67.696 726.265 68.56C717.529 70.48 706.105 83.632 706.681 94.768C706.969 100.24 712.057 104.944 717.337 104.848C733.753 104.464 764.665 79.504 763.993 73.36C763.897 72.688 762.937 73.936 762.265 74.224C754.489 80.56 748.825 85.072 740.089 90.352C729.817 96.496 720.409 99.76 715.609 99.76C714.265 99.76 713.209 99.472 712.729 98.992C712.153 98.32 711.865 97.264 711.865 95.92C711.865 94.48 712.153 92.56 712.825 90.64C725.497 91.984 737.113 81.904 736.441 74.512ZM716.953 82.384C719.929 77.872 728.089 71.344 730.873 72.88C732.985 75.184 724.249 86.8 714.361 86.8C715.033 85.36 715.993 83.824 716.953 82.384Z" fill="black"/>
</svg>
