<svg width="195" height="95" viewBox="0 0 195 95" fill="none" xmlns="http://www.w3.org/2000/svg">
<path d="M29.3035 14.168C23.4155 18.136 21.1115 21.336 20.7275 21.336C20.3435 21.336 21.6235 18.136 22.9035 9.048C23.0315 8.536 23.0315 7.896 23.0315 7.896C23.2875 7.384 22.9035 6.87199 22.5195 6.87199C22.2635 6.87199 22.1355 7 19.3195 20.952C18.6795 24.152 18.9355 23.384 17.9115 24.536C8.8235 35.416 2.8075 49.368 1.1435 60.12C0.1195 67.16 1.5275 70.872 3.5755 70.872C4.5995 70.872 5.6235 70.104 6.7755 68.696C13.9435 59.608 19.4475 25.048 20.3435 24.024C28.0235 15.448 36.8555 10.328 44.0235 10.328C48.8875 10.328 52.9835 12.76 55.2875 18.264C61.1755 32.856 49.6555 59.736 34.0395 77.784C23.9275 89.304 15.6075 93.144 10.3595 93.144C4.7275 93.144 2.6795 88.536 6.2635 84.056C8.3115 81.496 14.9675 74.84 18.1675 75.096C19.4475 75.224 19.1915 76.504 19.9595 76.504H20.2155C21.1115 76.248 20.7275 73.688 18.1675 73.688C13.6875 73.688 4.4715 82.392 3.3195 86.488C2.1675 90.456 4.7275 94.68 10.4875 94.68C14.0715 94.68 18.9355 93.016 24.9515 88.536C40.6955 76.632 58.4875 47.448 58.3595 27.48C58.2315 15.192 52.3435 8.792 44.0235 8.792C39.6715 8.792 34.5515 10.584 29.3035 14.168ZM17.2715 27.736C17.7835 26.968 18.0395 26.84 18.0395 26.84V27.096C17.0155 32.472 9.0795 69.72 3.7035 69.336C0.5035 69.08 1.9115 47.448 17.2715 27.736ZM71.8925 48.6C69.7165 50.392 66.1325 53.72 64.5965 53.72C63.9565 53.72 63.5725 53.208 63.7005 52.056C63.9565 50.008 64.8525 48.344 64.4685 47.704C64.3405 47.32 64.0845 47.192 63.8285 47.192C62.2925 47.192 59.8605 52.184 57.3005 53.72C56.4045 54.36 57.8125 49.88 59.7325 48.6C59.9885 48.728 60.1165 48.856 60.3725 48.856C60.8845 48.856 61.1405 48.088 60.5005 47.576C60.2445 47.32 59.9885 47.32 59.7325 47.32C57.9405 47.32 55.3805 51.672 55.5085 53.848C55.6365 54.744 56.1485 55.384 56.9165 55.384C57.4285 55.384 57.9405 55.256 58.5805 54.744C59.9885 53.592 62.4205 50.52 62.4205 50.52C62.4205 50.52 61.2685 55.128 64.5965 55.128C66.6445 55.128 68.6925 53.208 72.5325 50.008C73.0445 49.624 73.1725 48.856 71.8925 48.6ZM83.9695 41.816C83.0735 42.2 76.6735 52.568 74.6255 54.488C74.2415 54.872 73.9855 55 73.8575 55C73.6015 55 73.4735 54.616 73.3455 53.336C73.2175 50.392 73.8575 48.344 73.3455 47.704C73.2175 47.576 73.0895 47.448 72.8335 47.448C72.5775 47.448 72.3215 47.704 72.1935 47.96C71.9375 48.6 70.7855 56.024 73.3455 56.664H73.7295C75.6495 56.664 77.8255 53.336 82.0495 47.064C84.9935 42.84 85.1215 42.968 85.1215 42.584C85.3775 42.072 84.8655 41.688 84.4815 41.688C84.2255 41.688 84.0975 41.688 83.9695 41.816ZM84.0745 57.56C85.0985 57.56 86.2505 57.048 87.7865 55.768C89.3225 54.488 91.8825 51.544 93.1625 50.136C93.4185 49.752 93.8025 48.856 92.2665 48.6C88.1705 53.208 85.4825 56.024 84.3305 56.024C83.4345 56.024 83.5625 54.232 84.7145 50.008C84.8425 49.368 85.3545 48.088 84.3305 48.088C84.0745 48.088 83.8185 48.216 83.6905 48.344C83.4345 48.728 82.5385 52.056 82.2825 53.08C81.7705 56.024 82.5385 57.56 84.0745 57.56ZM85.3545 40.792C85.2265 40.792 84.9705 40.92 84.8425 41.048C84.7145 41.176 84.0745 42.712 84.9705 42.968C85.6105 42.968 85.8665 42.968 85.9945 42.2C86.2505 41.176 85.8665 40.792 85.3545 40.792ZM115.609 48.6C113.049 51.8 107.673 61.272 104.601 61.272C104.345 61.272 103.961 61.144 103.705 60.888C101.913 58.84 102.041 52.056 102.425 49.496C102.553 48.6 107.289 43.224 113.177 28.76C115.737 22.36 119.449 11.992 119.577 5.07999C119.577 2.904 119.321 1.62399 118.553 0.983994C118.169 0.599998 117.913 0.471992 117.529 0.471992C111.897 0.471992 102.297 36.056 101.145 47.96C100.889 50.136 95.0005 56.792 92.8245 56.792C90.6485 56.792 91.4165 51.672 93.8485 48.728C94.6165 47.832 95.6405 47.064 96.2805 47.064C96.6645 47.064 97.0485 47.32 97.0485 47.96V48.6C97.1765 48.856 97.4325 48.984 97.6885 48.984C97.8165 48.984 97.9445 48.984 98.0725 48.856C98.4565 48.6 98.5845 47.192 97.9445 46.424C97.4325 45.784 96.9205 45.528 96.2805 45.528C92.8245 45.528 87.8325 54.36 91.1605 57.56C91.6725 58.072 92.3125 58.328 92.8245 58.328C95.2565 58.328 98.3285 54.872 100.121 52.568C100.505 51.928 100.633 51.672 100.76 51.672V52.696C100.505 58.712 101.913 62.808 104.601 62.808C108.185 62.808 115.097 52.696 116.505 49.88C116.761 49.496 117.017 48.856 115.609 48.6ZM117.913 7.384C116.121 22.616 102.937 47.064 102.809 45.784C102.809 40.28 112.537 4.696 117.273 2.13599C118.297 1.49599 118.041 6.104 117.913 7.384ZM128.643 94.168C128.771 94.296 128.899 94.296 129.155 94.296C131.203 94.296 137.859 91.096 171.908 91.096H173.7C178.819 91.096 192.9 91.224 193.028 92.376C193.156 92.76 193.412 93.016 193.796 93.016C194.308 93.016 194.948 92.504 194.82 91.736C194.564 90.072 185.732 89.56 175.492 89.56C160.772 89.56 142.98 90.584 142.98 90.584C143.108 90.072 142.596 89.432 143.108 86.232C144.26 79.32 152.964 42.2 158.98 21.848C160.003 18.392 162.82 9.688 161.924 7.768C161.796 7.384 161.54 7.256 161.156 7.256C160.772 7.256 160.516 7.51199 160.644 8.02399C161.54 10.84 157.06 18.52 145.668 67.672C141.7 84.568 140.931 88.792 141.7 90.456C141.828 90.84 141.956 90.712 140.931 90.84C134.403 91.608 131.203 92.632 129.283 93.016C128.387 93.144 128.259 93.784 128.643 94.168ZM165.385 46.424C163.465 46.424 162.056 48.984 161.544 49.368C161.032 49.624 161.416 49.88 161.032 50.648C159.24 54.616 160.008 57.688 162.441 57.944C165.641 58.2 171.401 52.696 173.705 50.392C174.345 49.88 174.857 49.112 173.321 48.6C171.657 50.264 165.897 55.768 162.953 56.152C161.928 56.152 161.8 55.896 161.8 54.872C161.672 54.488 161.544 53.976 162.056 52.44C162.312 51.8 162.184 51.928 162.441 52.056C162.825 52.312 163.337 52.44 163.849 52.44C165.257 52.44 166.665 51.288 167.177 49.752C167.689 47.832 166.665 46.552 165.385 46.424ZM162.953 50.392C163.209 49.752 164.489 48.088 165.257 48.088C165.513 48.088 165.641 48.344 165.641 48.728C165.769 49.88 164.745 50.904 163.721 50.904C163.593 50.904 163.337 50.776 163.081 50.648C162.953 50.52 162.953 50.52 162.953 50.392ZM176.385 46.424C174.465 46.424 173.056 48.984 172.544 49.368C172.032 49.624 172.416 49.88 172.032 50.648C170.24 54.616 171.008 57.688 173.441 57.944C176.641 58.2 182.401 52.696 184.705 50.392C185.345 49.88 185.857 49.112 184.321 48.6C182.657 50.264 176.897 55.768 173.953 56.152C172.928 56.152 172.8 55.896 172.8 54.872C172.672 54.488 172.544 53.976 173.056 52.44C173.312 51.8 173.184 51.928 173.441 52.056C173.825 52.312 174.337 52.44 174.849 52.44C176.257 52.44 177.665 51.288 178.177 49.752C178.689 47.832 177.665 46.552 176.385 46.424ZM173.953 50.392C174.209 49.752 175.489 48.088 176.257 48.088C176.513 48.088 176.641 48.344 176.641 48.728C176.769 49.88 175.745 50.904 174.721 50.904C174.593 50.904 174.337 50.776 174.081 50.648C173.953 50.52 173.953 50.52 173.953 50.392Z" fill="black"/>
</svg>
