<svg width="166" height="75" viewBox="0 0 166 75" fill="none" xmlns="http://www.w3.org/2000/svg">
<path d="M24.9375 74.5625C26.0625 74.5625 27.3125 74.4375 28.8125 74.1875C33.375 73.0625 38.125 69.0625 43.0625 62.1875C43.1875 62.0625 43.3125 61.875 43.375 61.6875C49 61.3125 53.5 61.1875 56.875 61.375C57.1875 61.375 57.375 61.25 57.5625 61.125C57.75 60.9375 57.8125 60.75 57.875 60.4375C57.875 60.1875 57.75 60 57.625 59.8125C57.4375 59.625 57.25 59.5 57 59.5C56.875 59.5 55.625 59.5 53.3125 59.4375C50.9375 59.4375 48.0625 59.5625 44.625 59.75C48.9375 52.75 51.3125 45.5 51.8125 38.0625C52.1875 29.875 50.6875 22.3125 47.4375 15.4375C43.1875 7 37 2.3125 28.75 1.25C21.9375 0.4375 16.25 1.8125 11.75 5.3125C10.25 6.5625 8.875 8 7.6875 9.625C7.625 8.875 7.5625 8.3125 7.5625 7.8125C7.5 7.3125 7.4375 6.9375 7.4375 6.625C7.375 6.375 7.3125 6.125 7.3125 6C7.25 5.8125 7.25 5.75 7.1875 5.625C7.125 5.5625 7.125 5.5625 7.0625 5.5C6.875 5.3125 6.6875 5.1875 6.4375 5.1875C6.1875 5.1875 6 5.25 5.75 5.4375C5.4375 5.75 5.375 6.0625 5.5625 6.5C5.6875 7.0625 5.8125 9 6 12.3125C4.8125 14.375 3.875 16.6875 3.0625 19.3125C1.3125 25.4375 0.4375 31.625 0.375 37.875C0.375 44.125 0.625 49.1875 1.1875 53.1875C1.75 58.1875 2.5625 62.6875 3.5625 66.625C3.9375 68.0625 4.3125 69.1875 4.625 70.0625C4.9375 70.9375 5.1875 71.5625 5.4375 72C5.6875 72.375 5.9375 72.6875 6.0625 72.875C6.25 73 6.375 73.125 6.5 73.125C7.0625 73.4375 7.625 73.3125 8.0625 72.8125C8.0625 72.75 8.125 72.625 8.1875 72.5C8.25 72.375 8.375 72.125 8.4375 71.8125C8.5 71.4375 8.5625 70.9375 8.625 70.25C8.6875 69.625 8.75 68.75 8.8125 67.625C8.875 66.5 8.9375 65.125 8.9375 63.5C9 61.8125 9 59.8125 9 57.5C9 55.1875 9 52.4375 8.9375 49.3125C8.9375 46.1875 8.875 42.625 8.75 38.5625C8.5625 30.4375 8.3125 23.0625 8.0625 16.4375C8 15 7.9375 13.8125 7.875 12.75C12.3125 5.1875 19.1875 1.9375 28.5625 3.0625C33.25 3.75 36.9375 5.4375 39.6875 8.0625C42.4375 10.6875 44.5 13.375 45.75 16.25C48.9375 22.8125 50.3125 30.0625 50 37.9375C49.5 45.5 46.9375 52.875 42.375 59.9375C41.9375 60 41.5625 60 41.1875 60.0625C30.0625 61.1875 23.4375 63.75 21.25 67.6875C21.125 67.875 20.9375 68.25 20.6875 68.8125C20.375 69.375 20.1875 70.0625 20.125 70.8125C20.0625 71.5625 20.25 72.25 20.625 72.9375C21.375 74.0625 22.8125 74.5625 24.9375 74.5625ZM41 61.9375C36.5625 67.875 32.375 71.375 28.4375 72.375C26.875 72.625 25.625 72.8125 24.75 72.75C23.875 72.75 23.25 72.625 22.875 72.4375C22.5 72.25 22.25 72.0625 22.1875 71.9375C22 71.625 21.9375 71.25 22 70.8125C22.0625 70.375 22.1875 69.9375 22.3125 69.5625C22.5 69.1875 22.6875 68.875 22.8125 68.6875L22.875 68.625C24 66.6875 26.25 65.1875 29.6875 64.125C33.0625 63.0625 36.8125 62.375 41 61.9375ZM6.1875 16.0625C6.4375 22.25 6.75 29.8125 6.9375 38.875C7.3125 57.3125 7.25 67.875 6.8125 70.5625C5.3125 67.375 3.9375 60.6875 2.75 50.4375C2.25 46.125 2.125 40.8125 2.375 34.375C2.625 27.9375 3.875 21.8125 6.1875 16.0625ZM59.5625 66.9375C60.125 66.9375 60.6875 66.6875 61.3125 66.3125C62.375 65.4375 63.3125 64.1875 64.125 62.5625C64.75 63.4375 65.5625 64.125 66.5 64.4375C67.125 64.6875 67.9375 64.5625 68.8125 64.1875C69.6875 63.8125 70.6875 62.75 71.6875 61.125C71.8125 60.875 71.8125 60.6875 71.75 60.5C71.75 60.25 71.5625 60.0625 71.375 59.9375C71.1875 59.875 71 59.8125 70.75 59.875C70.5625 59.9375 70.375 60.0625 70.25 60.25C69.8125 61 69.3125 61.6875 68.6875 62.25C68.125 62.8125 67.5 63 66.8125 62.75C66 62.375 65.375 61.625 64.9375 60.5625C65.3125 59.3125 65.375 58.375 65.125 57.6875C64.8125 57 64.25 56.75 63.5 56.875C63.375 56.9375 63.25 56.9375 63.125 57.0625C63 57.125 62.875 57.25 62.75 57.4375C62.6875 57.625 62.625 57.875 62.5625 58.1875C62.5625 58.8125 62.75 59.625 63.125 60.625C62.8125 61.4375 62.4375 62.25 61.9375 63.0625C61.4375 63.875 60.875 64.5 60.3125 64.9375C60.0625 65.125 59.875 65.1875 59.75 65.25C59.5625 65.25 59.5 65.25 59.375 65.1875C59.3125 65.1875 59.25 65.125 59.1875 65.0625C58.5 64.3125 58.125 62.9375 58.1875 61.0625C58.25 59.1875 58.625 57.375 59.3125 55.6875C59.625 54.8125 60 54.1875 60.3125 53.8125C60.625 53.4375 60.875 53.3125 61 53.3125C61.125 53.25 61.3125 53.4375 61.5625 53.6875C61.8125 54 62.0625 54.5625 62.375 55.375C62.4375 55.5625 62.625 55.75 62.8125 55.8125C63 55.9375 63.1875 55.9375 63.4375 55.875C63.625 55.75 63.8125 55.625 63.9375 55.4375C64 55.25 64 55 63.9375 54.8125C63.875 54.5 63.6875 54.125 63.4375 53.625C63.25 53.125 62.875 52.6875 62.5 52.25C62.125 51.875 61.625 51.625 61 51.625C59.75 51.625 58.6875 52.75 57.75 55.0625C57.0625 56.8125 56.625 58.8125 56.5 61.125C56.4375 63.375 56.9375 65.125 58.0625 66.3125C58.5625 66.6875 59.0625 66.9375 59.5625 66.9375ZM73.5625 66.1875C74.25 66.1875 75 65.75 75.75 64.875C76.625 63.6875 77.4375 62.1875 78.1875 60.1875C78.5625 60.875 78.9375 61.375 79.1875 61.625C79.6875 62.125 80.3125 62.3125 81 62.3125C81.5 62.25 82 62.125 82.4375 61.875C82.875 61.5625 83.25 61.3125 83.5625 61.0625C83.8125 60.75 84 60.625 84.0625 60.5625C84.1875 60.375 84.3125 60.125 84.25 59.9375C84.25 59.6875 84.1875 59.5 84 59.375C83.8125 59.1875 83.625 59.125 83.375 59.125C83.1875 59.1875 83 59.25 82.8125 59.4375C82.625 59.625 82.375 59.875 82 60.1875C81.625 60.4375 81.25 60.5625 80.875 60.625C80.6875 60.625 80.5 60.5625 80.375 60.4375C80.125 60.25 79.9375 59.875 79.6875 59.4375C79.4375 58.9375 79.1875 58.4375 78.9375 57.875C79.5 55.875 79.625 54.4375 79.25 53.4375C79 52.9375 78.625 52.6875 78.125 52.625C77.375 52.625 76.875 52.9375 76.625 53.625C76.4375 54.125 76.4375 54.75 76.5625 55.5C76.6875 56.3125 76.875 57.125 77.1875 57.9375C76.5625 60.125 75.6875 62.0625 74.5625 63.6875C74.25 64 74 64.25 73.8125 64.375C73.6875 64.4375 73.5625 64.5 73.5 64.5C72.9375 64.25 72.5 63.0625 72.125 60.9375C71.75 58.75 71.625 56.25 71.6875 53.3125C71.6875 53.0625 71.625 52.875 71.4375 52.6875C71.3125 52.5625 71.125 52.4375 70.875 52.4375C70.625 52.4375 70.4375 52.5 70.3125 52.6875C70.125 52.8125 70.0625 53 70 53.25C70 53.375 70 54 70 55.125C70 56.25 70.125 57.5625 70.25 59.125C70.625 63.4375 71.5625 65.75 73.125 66.125C73.25 66.125 73.375 66.1875 73.5625 66.1875ZM85.1875 56.6875V55.9375C85.1875 55.625 85.125 55.375 84.9375 55.1875C84.75 54.9375 84.5 54.875 84.25 54.9375C83.875 54.875 83.625 54.9375 83.4375 55.1875C83.25 55.375 83.1875 55.5625 83.1875 55.8125V56.6875L83.3125 56.9375L83.5 57L83.8125 57.0625H84.125H84.4375L84.75 57L85 56.875L85.1875 56.6875ZM83.3125 63.1875C83.5 65.0625 84.0625 66.375 84.875 67.1875C85.3125 67.5 85.75 67.6875 86.1875 67.6875C86.375 67.6875 86.5625 67.6875 86.75 67.625C87.5 67.375 88.1875 66.8125 88.875 65.875C89.5 64.9375 90.0625 64 90.5 63.0625C90.9375 62.125 91.1875 61.4375 91.3125 61C91.375 60.8125 91.375 60.5625 91.3125 60.375C91.1875 60.1875 91 60 90.8125 59.9375C90.625 59.875 90.375 59.9375 90.1875 60C90 60.0625 89.8125 60.25 89.75 60.4375C89.3125 61.5625 88.8125 62.6875 88.125 63.875C87.4375 65.0625 86.875 65.8125 86.3125 66C86.25 66.0625 86.1875 66.0625 86.125 66C86.0625 66 86 66 85.9375 65.9375C85.375 65.3125 85.0625 64.125 84.9375 62.3125C84.875 61.375 84.875 60.4375 84.875 59.5C84.9375 59.25 84.875 59.0625 84.6875 58.875C84.5 58.6875 84.3125 58.625 84.125 58.6875C83.8125 58.625 83.625 58.6875 83.5 58.875C83.3125 59.0625 83.25 59.25 83.25 59.4375C83.1875 59.8125 83.1875 60.3125 83.1875 61C83.1875 61.6875 83.25 62.4375 83.3125 63.1875ZM111.438 67.0625C112.812 67 114.062 66.6875 115.125 66.0625C116.25 65.4375 117.188 64.75 117.938 63.875C118.688 63.0625 119.312 62.3125 119.688 61.6875C120.125 61 120.375 60.625 120.375 60.5625C120.5 60.3125 120.5 60.125 120.438 59.875C120.375 59.6875 120.25 59.5 120 59.4375C119.812 59.3125 119.625 59.3125 119.375 59.375C119.188 59.4375 119 59.5625 118.875 59.75C118.875 59.8125 118.688 60.1875 118.25 60.8125C117.812 61.5 117.25 62.1875 116.438 63C115.688 63.8125 114.75 64.4375 113.625 64.9375C112.562 65.375 111.312 65.5 109.938 65.1875C108.625 64.8125 106.75 63.75 104.438 62C104.562 61.875 104.625 61.75 104.75 61.625C106.25 59.875 107.562 58.0625 108.625 56.1875C109.75 54.3125 110.562 52.75 111.062 51.5625C111.688 50.375 112.375 48.5625 113.188 46.1875C114.062 43.8125 114.5 41.125 114.5 38.125C114.562 35.125 113.75 32.1875 112.062 29.1875C109.875 25.9375 107.188 24 104 23.25C100.812 22.5 97.8125 22.6875 94.875 23.8125C92 24.8125 89.5 26.75 87.4375 29.5625C85.3125 32.375 84.625 36.0625 85.25 40.625C85.5625 42.5625 86.5625 44.875 88.375 47.5C90.25 50.125 92.4375 52.8125 94.9375 55.5C93.375 56.3125 92 57.3125 90.9375 58.5C89.8125 59.625 89.25 60.875 89.125 62.125C89.0625 62.75 89.3125 63.5 89.75 64.1875C90.1875 64.9375 91.1875 65.625 92.5625 66.1875C96.125 67.5625 99.6875 66.5 103.312 63.1875C105.812 65.125 107.938 66.375 109.562 66.8125C110.188 66.9375 110.812 67.0625 111.438 67.0625ZM96.1875 56.75C98.125 58.75 100.062 60.5 102 62.125C100.688 63.3125 99.3125 64.1875 97.8125 64.75C96.3125 65.25 94.8125 65.25 93.1875 64.625C91.5625 64.0625 90.8125 63.1875 90.8125 62.1875C90.875 61.3125 91.4375 60.375 92.375 59.375C93.375 58.375 94.625 57.5 96.1875 56.75ZM97.8125 56.0625C98 56 98.1875 55.9375 98.375 55.875C99.25 55.5625 100.438 55.375 101.875 55.375C103.312 55.375 104.562 55.9375 105.562 57.125C105.625 57.25 105.75 57.3125 105.875 57.375C105.062 58.625 104.125 59.8125 103.125 60.9375C101.438 59.5625 99.6875 57.9375 97.8125 56.0625ZM101.562 53.6875C100.438 53.6875 99.25 53.875 97.9375 54.3125C97.4375 54.4375 97 54.5625 96.5625 54.75C90.8125 48.625 87.625 43.9375 87 40.75C86.3125 36.4375 86.9375 33.0625 88.8125 30.5C90.6875 28 92.875 26.25 95.4375 25.375C98.0625 24.375 100.75 24.25 103.562 24.875C106.375 25.5 108.75 27.25 110.625 30.0625C112.188 32.8125 112.938 35.5 112.875 38.3125C112.75 41.0625 112.375 43.5625 111.562 45.8125C110.812 48.0625 110.125 49.75 109.562 50.875C109 52.125 108.062 53.8125 106.812 56C105.562 54.4375 103.812 53.6875 101.562 53.6875ZM142.625 71.3125C139.875 71.3125 138.312 71.125 138 70.8125C137.625 69.25 137.375 64.75 137.25 57.1875C137.062 49.625 137 40.9375 137 31.125C137 19.5625 137 11.1875 137.062 6C137.062 5.75 137 5.5625 136.812 5.375C136.625 5.1875 136.438 5.125 136.188 5.0625H136.125C135.875 5.0625 135.688 5.125 135.562 5.3125C135.375 5.5 135.312 5.6875 135.312 5.9375C135.25 6.6875 135.25 10.375 135.25 16.9375C135.188 19.4375 135.188 26.125 135.25 37.0625C135.25 41.375 135.25 45.125 135.312 48.4375C135.375 51.75 135.438 54.625 135.5 57.0625C135.562 59.5 135.625 61.625 135.688 63.3125C135.75 65 135.75 66.4375 135.75 67.5C135.75 68.625 135.812 69.75 135.875 70.8125C135.938 71.9375 136.375 72.625 137.125 72.8125C137.625 72.9375 138.375 73 139.438 73.0625C140.25 73.125 141.312 73.125 142.625 73.0625C142.938 73.0625 143.312 73.0625 143.625 73L144.125 72.9375C147.875 72.6875 150.562 71.9375 152.188 70.6875C152.375 70.5 152.438 70.3125 152.5 70.0625C152.5 69.875 152.438 69.625 152.25 69.4375C152.062 69.25 151.875 69.125 151.688 69.125C151.438 69.125 151.188 69.1875 151 69.375C150.438 69.9375 149.062 70.375 146.812 70.8125C145.688 71.0625 144.438 71.25 143.062 71.3125H142.625ZM157.688 59.0625C157.688 59.125 157.688 59.125 157.75 59.125V59.375C157.688 59.5625 157.625 59.75 157.562 59.9375C157.438 60.125 157.312 60.25 157.188 60.375C156.75 60.9375 156.125 61.4375 155.312 62C155.375 61.375 155.562 60.875 155.875 60.5C156.312 59.875 156.812 59.375 157.5 59.0625C157.562 59.0625 157.562 59.0625 157.562 59H157.625C157.625 59 157.625 59 157.688 59C157.688 59 157.688 59 157.688 59.0625ZM143.312 59.125C144.062 57.6875 145 56.625 146.188 55.9375C147.375 55.3125 148.312 55 149.125 55C149.812 55 150.188 55.1875 150.188 55.5625C150.188 56.4375 149.375 57.1875 147.75 57.8125C146.375 58.375 144.875 58.8125 143.312 59.125ZM154.125 64.5625C154.312 65.125 154.625 65.625 155.062 66.125C155.75 66.8125 156.562 67.25 157.5 67.375C158.562 67.5 159.625 67.3125 160.625 66.75C161.5 66.0625 162.312 65.25 163 64.1875C163.688 63.1875 164.375 62.1875 164.938 61.125C165 60.9375 165.062 60.75 165 60.5625C164.938 60.375 164.812 60.25 164.625 60.125C164.438 60.0625 164.312 60 164.188 60C164 60.0625 163.875 60.125 163.812 60.25C163.688 60.375 163.438 60.8125 163 61.625C162.562 62.4375 162 63.3125 161.188 64.1875C160.375 65.125 159.625 65.625 158.938 65.8125C158.25 66 157.562 66 156.875 65.6875C156.312 65.375 155.875 64.875 155.562 64.1875L155.375 63.8125C156.625 62.9375 157.562 62.1875 158.125 61.625C158.688 61.0625 159.125 60.4375 159.312 59.875C159.5 59.3125 159.438 58.8125 159.125 58.25C158.75 57.6875 158.25 57.4375 157.562 57.5C157 57.625 156.562 57.875 156.125 58.25C155.312 58.9375 154.625 59.6875 154.188 60.625C153.875 61.3125 153.75 62.125 153.688 62.9375L152.625 63.625C151.125 64.75 149.5 65.3125 147.812 65.3125C146.25 65.3125 144.938 64.6875 143.875 63.4375C143.312 62.625 143 61.8125 143 60.875C145.375 60.625 147.625 59.9375 149.688 58.75C151.125 57.9375 151.812 56.875 151.812 55.5625C151.812 54.625 151.312 53.9375 150.375 53.5C149.938 53.375 149.5 53.3125 149.062 53.3125C148.125 53.3125 147 53.625 145.625 54.25C144.25 54.9375 143.062 56.125 142.062 57.875C141.562 58.875 141.312 59.875 141.312 60.8125C141.312 62.0625 141.75 63.25 142.562 64.4375C143.875 66.125 145.625 67 147.812 67.0625C148.25 67.0625 148.75 67 149.188 66.9375C150.75 66.5 152.188 65.8125 153.5 65L154.125 64.5625Z" fill="black"/>
</svg>
