<svg width="412" height="71" viewBox="0 0 412 71" fill="none" xmlns="http://www.w3.org/2000/svg">
<path d="M7.936 65.872C8.704 66 9.6 66 10.496 66C22.912 66 42.112 55.376 58.24 39.248C69.376 28.24 74.496 15.824 71.168 7.888C69.376 3.536 65.152 1.104 59.392 1.104C39.552 1.104 17.024 15.44 16.256 17.872C16 18.64 16.384 19.152 16.64 19.408C17.408 20.304 19.2 20.048 20.096 19.792C25.6 19.92 29.056 21.328 30.464 24.272C33.536 30.416 27.648 41.552 23.424 48.208L19.712 53.712C19.456 54.096 19.456 54.608 19.84 54.864C20.224 55.12 20.736 54.992 20.992 54.736C21.248 54.48 22.912 52.048 25.088 48.72L48.128 14.928C48.384 14.544 48.256 14.032 47.872 13.776C47.488 13.52 46.976 13.648 46.72 14.032L30.976 37.072C32.896 32.208 33.792 27.216 32 23.504C30.208 20.048 26.112 18.256 19.968 18.256H19.84C19.072 18.384 18.176 18.384 17.92 18.384C19.456 16.208 40.832 2.768 59.392 2.768C64.512 2.768 68.096 4.816 69.632 8.528C72.192 14.544 69.248 26.064 57.088 38.096C38.144 57.04 18.176 65.488 8.192 64.208C5.12 63.824 2.944 62.544 1.664 60.368C1.408 59.984 0.895999 59.856 0.511999 60.112C0.127999 60.368 0 60.88 0.256 61.264C1.664 63.824 4.352 65.36 7.936 65.872ZM82.032 44.88C83.056 47.056 85.872 52.176 92.784 52.176C101.872 52.176 112.752 45.776 113.264 45.52C113.648 45.264 113.776 44.752 113.392 44.368C113.136 43.984 112.624 43.856 112.368 44.112C112.24 44.24 101.36 50.512 92.784 50.512C84.72 50.512 83.184 43.344 83.184 43.088C83.056 42.832 82.8 42.576 82.544 42.576C82.288 42.448 81.904 42.576 81.776 42.704C81.648 42.832 81.52 43.088 81.264 43.216C80.624 42.832 79.6 42.448 77.552 42.448C74.864 42.448 72.304 44.624 71.536 46.544C70.896 47.824 71.152 49.104 72.048 50C72.432 50.384 72.944 50.64 73.584 50.64C76.016 50.512 80.112 46.672 82.032 44.88ZM73.2 48.848C72.816 48.464 72.688 47.952 73.072 47.184C73.584 45.776 75.632 44.112 77.552 44.112C78.832 44.112 79.6 44.24 80.112 44.368C77.808 46.544 74.864 48.976 73.456 48.976C73.328 48.976 73.2 48.848 73.2 48.848ZM113.736 43.856C113.224 43.728 112.84 43.984 112.712 44.368C112.072 47.312 110.024 57.04 111.304 58.96C111.432 59.088 111.688 59.472 112.328 59.472C112.456 59.472 112.584 59.472 112.584 59.472C115.4 58.96 125.384 49.488 128.712 42.704C129.352 44.752 130.504 47.056 132.936 48.72C138.44 52.432 148.168 51.408 161.608 45.648C161.992 45.392 162.248 45.008 162.12 44.496C161.864 44.112 161.352 43.984 160.968 44.112C148.168 49.616 138.824 50.64 133.832 47.312C130.376 45.008 129.864 41.04 129.864 38.864C129.992 38.096 129.352 37.968 129.224 37.968C128.712 37.84 128.328 38.224 128.2 38.864C128.2 38.992 128.2 39.248 128.072 39.76C126.792 46.032 115.144 57.04 112.584 57.808C112.2 56.272 113.096 50 114.248 44.752C114.376 44.368 114.12 43.856 113.736 43.856ZM207.039 43.472C206.783 43.088 206.271 42.96 205.887 43.216C196.031 49.872 162.239 53.712 159.679 52.304C159.295 52.048 159.167 51.792 159.167 51.408C158.911 49.488 161.471 46.032 162.495 44.88C162.751 44.496 162.751 43.984 162.367 43.728C162.111 43.472 161.599 43.472 161.215 43.856C160.831 44.24 157.119 48.592 157.503 51.664C157.631 52.432 158.015 53.2 158.783 53.584C159.167 53.968 160.319 54.096 161.983 54.096C172.863 54.096 198.847 50 206.783 44.624C207.167 44.368 207.295 43.856 207.039 43.472ZM167.103 36.56C167.231 36.56 167.359 36.688 167.487 36.688C167.743 36.688 167.999 36.56 168.127 36.304L172.991 28.752C173.247 28.368 173.119 27.856 172.735 27.6C172.351 27.344 171.839 27.472 171.583 27.856L166.847 35.408C166.591 35.792 166.719 36.304 167.103 36.56ZM233.771 25.552C234.027 25.296 234.027 24.784 233.643 24.4C233.387 24.144 232.875 24.144 232.491 24.528C231.851 25.168 229.675 27.344 227.115 30.16C222.123 35.152 215.851 40.272 210.731 44.24C210.347 43.856 209.323 43.088 206.891 43.088C204.331 43.088 199.979 47.568 198.955 50.128C198.315 51.408 198.699 52.176 199.083 52.56C199.211 52.688 199.467 52.816 199.979 52.816C202.155 52.816 211.499 46.032 220.203 38.608C216.107 44.368 213.035 50.256 215.595 53.2C216.619 54.352 218.155 54.864 220.075 54.864C228.523 54.864 243.499 45.904 245.547 44.624C245.931 44.368 246.059 43.856 245.931 43.472C245.675 43.088 245.163 42.96 244.779 43.216C238.251 47.184 220.587 56.528 216.747 52.176C214.187 48.976 221.355 39.12 228.523 31.056C230.443 29.136 232.235 27.216 233.771 25.552ZM200.235 51.152C200.363 50.768 200.619 50.128 201.259 49.232C202.923 46.928 205.611 44.752 206.891 44.752C208.427 44.752 209.067 45.136 209.323 45.264C205.099 48.464 201.643 50.768 200.235 51.152ZM288.757 44.112C289.013 44.24 293.365 46.928 302.325 43.856C301.685 44.88 301.045 45.904 300.533 46.8C300.405 46.928 295.285 55.504 290.037 60.752C285.301 60.24 279.797 60.24 278.901 62.544C278.517 63.312 278.773 64.208 279.669 64.848C281.205 66.128 284.917 66.768 288.117 64.592C288.885 63.952 289.781 63.312 290.549 62.544C293.621 62.8 296.309 63.568 298.869 64.464C307.701 67.536 328.053 70.48 338.549 59.088C338.933 58.832 338.933 58.32 338.549 57.936C338.165 57.68 337.653 57.68 337.397 58.064C328.053 68.048 308.981 66 299.253 62.8C297.077 62.032 294.645 61.52 292.085 61.008C297.205 55.632 301.685 48.08 301.941 47.696C302.837 46.032 303.861 44.496 304.757 42.96C311.541 40.144 320.373 34.256 331.765 22.608C340.853 13.392 345.717 5.584 344.565 2.384C344.181 1.488 343.413 0.975998 342.517 0.848C337.141 0.335999 321.525 13.008 303.733 41.552C294.133 45.392 289.653 42.704 289.653 42.704C289.269 42.448 288.757 42.576 288.501 42.96C288.245 43.344 288.373 43.856 288.757 44.112ZM287.221 63.184C284.533 65.104 281.717 64.336 280.693 63.568C280.437 63.44 280.309 63.184 280.309 63.184C280.437 62.8 281.717 62.16 285.429 62.16C286.325 62.16 287.221 62.16 288.373 62.288C287.989 62.672 287.605 62.928 287.221 63.184ZM342.133 2.512H342.261C342.773 2.512 342.901 2.64 343.029 2.896C343.541 4.432 341.621 10.192 330.613 21.456C320.629 31.696 312.565 37.328 306.421 40.4C323.573 13.392 337.653 2.512 342.133 2.512ZM343.213 41.168C343.469 40.272 343.085 39.76 342.701 39.632C341.933 38.992 340.781 39.632 339.885 40.272C338.221 41.424 336.685 43.216 336.429 45.136C336.173 45.264 336.173 45.52 336.173 45.776C336.173 46.032 336.301 46.16 336.301 46.288C336.429 46.416 336.429 46.672 336.429 46.8C337.197 49.232 340.141 50.64 345.517 50.896C346.285 51.024 346.925 51.024 347.693 51.024C357.037 51.024 366.637 47.184 370.349 45.648C370.349 46.288 370.349 46.928 370.477 47.44C371.117 49.488 373.165 52.048 379.949 52.56C380.845 52.688 381.613 52.688 382.509 52.688C398.893 52.688 411.053 45.136 411.565 44.624C411.821 44.24 411.821 43.728 411.437 43.472C411.181 43.088 410.669 43.088 410.285 43.472C410.157 43.6 396.973 52.176 380.077 50.896C375.469 50.64 372.781 49.232 372.141 47.056C371.885 46.288 371.885 45.52 372.141 44.752C374.445 43.856 380.333 41.04 380.589 38.608C380.589 38.224 380.589 37.456 379.693 36.816C378.669 36.176 377.005 36.432 375.085 37.712C373.293 39.12 371.501 41.296 370.733 43.6C368.429 44.624 356.397 50 345.645 49.36C341.037 48.976 338.477 47.952 337.965 46.288C339.501 45.776 342.189 44.496 343.213 41.168ZM376.109 39.12C377.133 38.352 377.901 38.096 378.413 38.096C378.541 38.096 378.669 38.096 378.797 38.224L378.925 38.352C378.925 39.248 376.109 41.04 373.037 42.576C373.805 41.168 374.957 40.016 376.109 39.12ZM338.349 44.368C338.989 42.96 340.525 41.68 341.421 41.168C340.781 42.96 339.373 43.856 338.349 44.368Z" fill="black"/>
</svg>
