<svg width="389" height="130" viewBox="0 0 389 130" fill="none" xmlns="http://www.w3.org/2000/svg">
<path d="M17.622 30.552C17.494 30.552 17.622 30.296 17.878 29.912C19.158 27.352 23.638 23.896 29.782 20.696C35.67 17.496 42.966 14.68 50.39 13.144C47.318 25.176 38.998 46.296 31.19 65.88C30.678 67.416 30.166 68.824 29.526 70.232C23.382 73.176 16.598 77.272 11.35 81.88C5.078 87.256 0.854 93.528 1.878 99.8C2.134 100.824 2.39 101.848 2.774 102.744C4.182 105.688 6.742 107.864 10.71 109.016C12.246 109.4 13.91 109.656 15.702 109.656C15.574 111.064 15.446 112.088 15.574 112.856C15.83 115.16 16.982 116.184 19.158 115.928C20.438 115.672 21.334 114.52 21.206 113.24C21.078 112.6 20.694 111.96 20.182 111.704C20.182 111.064 20.31 110.296 20.566 109.4C21.334 109.272 22.23 109.144 23.126 109.016C37.718 106.2 55.126 93.272 68.31 77.528C75.99 68.44 82.39 58.328 85.974 48.6C89.814 38.616 90.582 29.144 87.126 21.464C85.206 17.112 81.75 13.4 76.758 10.712C70.87 7.51199 63.574 6.744 56.022 7.51199C56.278 5.336 56.278 3.672 55.766 2.52C55.382 1.24 53.974 0.599998 52.822 0.983994C51.542 1.49599 50.902 2.77599 51.414 4.05599C51.67 4.952 51.67 6.23199 51.414 8.15199C51.158 8.15199 51.03 8.15199 50.902 8.28C42.454 9.81599 34.134 13.016 27.478 16.6C20.694 20.184 15.446 24.408 13.654 27.608C13.014 29.016 12.758 30.296 12.886 31.448C13.142 32.728 14.422 33.624 15.702 33.368C16.982 33.112 17.75 31.832 17.622 30.552ZM35.67 67.416C43.734 47.192 52.31 25.304 55.126 12.376C62.294 11.48 69.206 11.992 74.582 14.936C78.55 17.112 81.366 20.056 82.902 23.512C85.718 29.784 84.95 38.104 81.622 46.936C78.166 56.152 72.15 65.752 64.726 74.584C52.054 89.432 35.798 101.72 22.23 104.408C22.102 104.408 21.974 104.408 21.846 104.408C24.15 97.112 28.502 85.976 33.238 73.688C33.494 73.56 33.622 73.432 33.878 73.432C38.486 71.256 42.582 69.848 45.014 69.464C46.294 69.208 47.19 68.056 46.934 66.776C46.678 65.496 45.526 64.6 44.246 64.856C42.198 65.112 39.126 66.136 35.67 67.416ZM26.966 76.888C22.614 88.152 18.774 98.136 16.854 104.92C14.934 105.048 13.398 104.792 11.99 104.408C9.43 103.768 7.894 102.488 7.126 100.824C6.87 100.184 6.614 99.672 6.614 99.032C5.846 94.68 9.302 89.816 14.422 85.336C18.134 82.264 22.486 79.32 26.966 76.888ZM87.943 84.056C86.151 85.464 84.103 86.872 82.055 88.024C80.647 88.792 79.623 89.304 78.983 89.432V89.304C80.007 87 82.567 83.928 84.743 83.032C86.279 82.264 87.303 83.032 87.943 84.056ZM83.079 78.808C79.751 80.216 76.167 84.44 74.887 87.512C74.375 88.792 74.247 89.944 74.375 90.84C74.503 92.376 75.271 93.528 76.935 93.912C78.471 94.296 80.775 93.784 84.231 91.992C88.199 89.816 91.783 86.616 94.343 84.312C96.007 90.456 100.743 92.248 106.247 92.248C110.855 92.12 115.719 90.712 119.687 89.56L119.943 89.432C121.095 89.048 121.735 87.896 121.351 86.744C121.095 85.464 119.815 84.824 118.663 85.208H118.407C114.695 86.36 110.087 87.64 106.247 87.768C101.895 87.768 98.439 86.104 98.311 79.832C98.311 79.32 98.183 78.68 97.799 78.296C97.031 77.4 95.623 77.272 94.599 78.04C94.343 78.296 93.831 78.68 93.319 79.32C92.807 79.704 92.167 80.344 91.399 80.984C89.863 78.936 87.431 77.016 83.079 78.808ZM120.992 78.552C120.608 79.448 120.992 78.68 120.48 79.832C119.2 82.52 117.792 85.592 117.152 87.896C116.896 88.664 116.768 89.304 116.64 89.816C116.64 90.84 116.768 91.736 117.28 92.376C118.048 93.4 119.072 93.912 120.48 93.912C121.376 93.912 122.4 93.656 123.424 93.272C127.392 91.608 133.024 87 136.608 83.928C136.864 84.824 137.12 85.592 137.504 86.36C138.784 88.792 140.448 90.328 142.624 91.352C144.672 92.248 146.848 92.632 149.28 92.504C153.888 92.504 158.88 90.84 162.464 89.048C163.616 88.536 164 87.128 163.488 85.976C162.848 84.952 161.568 84.44 160.416 85.08C157.344 86.616 152.992 88.024 149.152 88.024C147.488 88.152 145.824 87.896 144.544 87.256C143.264 86.616 142.24 85.72 141.472 84.312C140.96 83.16 140.576 81.496 140.448 79.576C140.576 78.936 140.32 78.424 139.936 78.04C139.168 77.016 137.76 76.888 136.864 77.784C136.608 77.912 136.224 78.296 135.584 78.808C132.64 81.496 125.856 87.384 121.76 89.176C121.632 89.176 121.504 89.176 121.376 89.304V89.176C122.016 87.256 123.424 84.312 124.576 81.624C124.704 81.368 124.32 82.136 125.088 80.344C125.6 79.32 125.088 77.912 123.936 77.4C122.912 76.888 121.504 77.4 120.992 78.552ZM161.444 78.808C161.316 79.576 161.06 80.472 160.804 81.24C160.292 82.776 159.78 84.44 159.396 85.976C158.756 89.816 159.652 93.016 164.9 94.04C168.612 94.552 173.476 94.296 178.468 93.528C184.484 92.504 190.628 90.84 194.596 89.304C195.748 88.792 196.388 87.512 195.876 86.36C195.492 85.208 194.212 84.696 193.06 85.08C189.22 86.616 183.46 88.152 177.7 89.048C173.22 89.816 168.74 90.072 165.668 89.56C163.876 89.304 163.62 88.152 163.876 86.616C164.132 85.464 164.516 84.056 165.028 82.648C165.284 81.752 165.54 80.984 165.796 80.088C166.18 78.808 165.412 77.656 164.26 77.272C163.108 77.016 161.828 77.656 161.444 78.808ZM165.284 73.176C166.692 73.176 167.844 72.152 167.844 70.744C167.844 69.336 166.692 68.184 165.284 68.184C163.876 68.184 162.852 69.336 162.852 70.744C162.852 72.152 163.876 73.176 165.284 73.176ZM204.821 82.008C202.773 84.44 200.725 86.36 199.061 87.768C197.909 88.664 197.013 89.304 196.245 89.56C196.245 89.304 196.373 88.792 196.629 88.28C197.141 87.256 197.909 86.104 198.805 84.952C199.829 83.928 200.981 83.032 202.133 82.52C203.029 82.136 203.925 81.88 204.821 82.008ZM200.213 78.424C198.549 79.32 196.885 80.6 195.605 82.008C194.325 83.416 193.173 84.952 192.533 86.488C191.509 88.92 191.509 91.224 192.661 92.76C192.917 93.144 193.301 93.4 193.685 93.656C194.837 94.296 196.245 94.424 197.909 93.656C199.061 93.272 200.469 92.376 201.877 91.224C204.181 89.304 206.869 86.488 209.685 83.032C209.685 83.8 209.813 84.568 209.941 85.336C210.453 89.176 212.245 91.736 214.805 93.272C217.237 94.68 220.437 95.192 223.765 94.936C229.653 94.552 236.565 92.12 242.069 89.432C243.093 88.92 243.605 87.512 243.093 86.488C242.453 85.336 241.173 84.824 240.021 85.336C235.029 87.896 228.757 90.072 223.509 90.456C220.949 90.584 218.645 90.328 217.109 89.432C215.701 88.536 214.677 87.128 214.293 84.696C214.037 82.264 214.293 79.192 215.573 74.968C215.957 74.456 216.341 73.816 216.725 73.176C222.613 63.704 228.501 52.824 232.085 44.888C233.493 41.56 234.517 38.744 235.029 36.568C235.797 33.496 235.285 31.192 233.493 30.296C233.237 30.168 232.981 30.168 232.853 30.04C229.525 29.272 225.685 35.416 221.845 44.248C218.517 52.184 214.933 62.552 211.989 71.512C211.733 72.024 211.605 72.536 211.477 73.048C210.197 74.84 209.045 76.632 207.893 78.168C205.333 77.016 202.645 77.4 200.213 78.424ZM223.381 52.44C224.277 50.264 225.173 48.088 226.069 46.04C227.861 41.688 229.525 38.104 230.549 36.056C230.037 37.976 229.141 40.28 227.989 43.096C226.709 45.912 225.173 49.112 223.381 52.44ZM336.314 30.552C336.954 25.176 337.082 20.952 336.826 17.752C336.57 14.552 335.802 12.12 334.906 10.456C333.754 8.408 332.218 7.384 330.554 7.128C330.17 7.128 329.914 7.128 329.53 7.128C322.874 7.768 312.762 24.024 303.034 44.504C293.818 63.704 284.474 86.872 278.33 104.024C271.93 104.536 266.042 105.304 261.178 106.2C260.538 106.328 259.77 106.712 259.514 107.48C258.874 108.632 259.386 110.04 260.538 110.68C261.05 110.936 264.634 114.904 267.706 119.384C269.498 122.072 270.906 124.76 271.29 126.808C271.418 127.832 272.186 128.728 273.21 128.856C274.49 129.112 275.77 128.344 275.898 127.064C276.538 123.736 278.714 117.08 281.658 108.504C286.01 108.12 290.49 107.864 294.842 107.736C303.034 107.48 310.714 107.608 316.346 108.376C321.21 109.016 324.282 109.784 324.538 110.68C324.538 111.96 325.69 112.984 326.97 112.856C328.25 112.856 329.274 111.832 329.146 110.552C329.146 110.296 329.146 110.04 329.146 109.912C328.506 106.584 323.898 104.536 316.986 103.64C310.97 102.872 303.034 102.744 294.714 103C291.002 103.128 287.162 103.256 283.45 103.512C289.466 86.872 298.426 64.856 307.258 46.552C316.474 27.352 325.178 12.248 329.914 11.864C330.17 11.864 330.426 12.248 330.81 12.76C331.322 13.912 331.834 15.704 332.09 18.264C332.346 21.08 332.218 24.92 331.578 29.912C331.45 31.192 332.346 32.344 333.626 32.6C334.906 32.728 336.058 31.832 336.314 30.552ZM273.21 119.256C272.698 118.36 272.186 117.592 271.674 116.824C270.01 114.392 268.09 111.96 266.426 110.168C269.626 109.656 272.954 109.272 276.538 108.888C275.258 112.856 274.106 116.312 273.21 119.256ZM324.538 110.68C324.538 110.68 324.538 110.552 324.538 110.68V110.68ZM350.95 85.336C349.286 86.232 338.278 88.536 330.086 89.304C328.166 89.56 326.502 89.688 325.094 89.688C326.758 88.92 328.294 88.024 329.574 87.128C330.982 86.104 332.006 85.208 332.774 84.184C333.798 82.648 334.054 81.112 333.286 79.704C333.158 79.32 332.902 78.936 332.518 78.68C330.854 77.144 328.422 77.144 325.99 78.168C324.454 78.68 322.918 79.576 321.51 80.728C320.23 81.752 318.95 83.16 318.054 84.568C316.774 86.872 316.39 89.304 317.67 91.48C319.206 94.04 324.454 94.424 330.47 93.784C339.174 92.888 351.078 90.328 352.998 89.304C354.15 88.664 354.534 87.384 353.894 86.232C353.382 85.208 351.974 84.696 350.95 85.336ZM324.326 84.184C325.35 83.416 326.502 82.648 327.526 82.264C328.038 82.136 328.55 81.88 328.806 81.88C328.422 82.392 327.782 82.904 327.014 83.416C325.734 84.312 324.198 85.208 322.534 85.848C323.046 85.336 323.686 84.696 324.326 84.184ZM384.7 85.336C383.036 86.232 372.028 88.536 363.836 89.304C361.916 89.56 360.252 89.688 358.844 89.688C360.508 88.92 362.044 88.024 363.324 87.128C364.732 86.104 365.756 85.208 366.524 84.184C367.548 82.648 367.804 81.112 367.036 79.704C366.908 79.32 366.652 78.936 366.268 78.68C364.604 77.144 362.172 77.144 359.74 78.168C358.204 78.68 356.668 79.576 355.26 80.728C353.98 81.752 352.7 83.16 351.804 84.568C350.524 86.872 350.14 89.304 351.42 91.48C352.956 94.04 358.204 94.424 364.22 93.784C372.924 92.888 384.828 90.328 386.748 89.304C387.9 88.664 388.284 87.384 387.644 86.232C387.132 85.208 385.724 84.696 384.7 85.336ZM358.076 84.184C359.1 83.416 360.252 82.648 361.276 82.264C361.788 82.136 362.3 81.88 362.556 81.88C362.172 82.392 361.532 82.904 360.764 83.416C359.484 84.312 357.948 85.208 356.284 85.848C356.796 85.336 357.436 84.696 358.076 84.184Z" fill="black"/>
</svg>
