<svg width="307" height="90" viewBox="0 0 307 90" fill="none" xmlns="http://www.w3.org/2000/svg">
<path d="M14.3485 88.288C15.1165 88.288 15.6285 87.648 16.0125 86.496C16.2685 85.344 17.0365 84.704 18.3165 84.448C20.4925 83.936 22.6685 83.168 24.8445 82.272C42.3805 74.592 57.6125 63.584 70.5405 49.376C71.4365 48.224 72.5885 47.584 73.9965 47.456L77.5805 47.328H81.4205C84.2365 47.328 86.5405 47.328 88.5885 47.584C89.4845 47.584 89.8685 47.2 89.8685 46.56C89.8685 45.664 89.1005 45.28 87.5645 45.28L74.7645 45.408C74.6365 45.408 74.3805 45.28 74.2525 45.024C82.4445 35.424 87.0525 25.184 87.8205 14.56C87.8205 8.8 85.2605 4.83199 80.1405 2.52799C77.7085 1.504 75.2765 0.991997 72.8445 0.991997C71.9485 0.991997 70.9245 1.12 70.0285 1.24799C64.3965 2.39999 59.1485 4.448 54.2845 7.52C42.3805 14.816 31.7565 23.904 22.6685 34.528C20.7485 36.96 19.8525 38.496 19.8525 39.264C19.8525 40.288 20.3645 40.8 21.5165 40.8C21.9005 40.8 22.4125 40.416 23.0525 39.776C32.5245 27.232 43.6605 17.248 56.5885 9.952C54.5405 12.256 52.6205 14.56 50.8285 16.864C41.9965 28.512 34.4445 40.928 27.9165 53.856C26.2525 57.568 23.5645 60.384 19.9805 62.304C14.7325 64.864 9.9965 68.192 6.0285 72.416C2.4445 75.872 0.6525 78.816 0.6525 81.504C0.6525 84.576 3.0845 86.112 8.0765 86.112L12.0445 85.728C12.8125 85.728 13.1965 86.24 13.1965 87.136C13.1965 87.648 13.4525 88.032 13.9645 88.288H14.3485ZM29.3245 57.184V56.672C29.3245 56.288 29.4525 56.032 29.5805 55.776C29.7085 55.52 29.7085 55.392 29.8365 55.264C36.1085 42.976 43.2765 31.328 51.5965 20.32C51.5965 20.192 51.9805 19.68 52.8765 18.784C53.2605 18.4 53.9005 18.144 54.6685 18.144C55.0525 18.144 55.4365 18.016 55.5645 17.632C56.3325 16.48 57.2285 15.328 58.1245 14.432C60.0445 12.512 60.9405 11.232 60.9405 10.464C60.9405 9.696 60.5565 8.92799 59.7885 8.032C64.1405 5.34399 68.8765 4.064 73.8685 4.064C79.1165 4.064 82.7005 6.368 84.4925 11.104C84.8765 12.512 85.0045 14.048 85.0045 15.456C85.0045 16.736 84.8765 18.016 84.6205 19.296C83.3405 26.336 80.5245 32.736 76.1725 38.496C75.4045 39.648 74.6365 40.672 73.8685 41.568C73.1005 42.592 72.3325 43.488 71.6925 44.384C70.9245 45.28 69.9005 45.92 68.7485 46.048C55.4365 47.968 42.6365 51.552 30.3485 56.928L29.3245 57.184ZM18.1885 82.272C17.8045 81.888 17.6765 81.632 17.6765 81.504L17.8045 80.864C19.8525 74.976 22.9245 68.448 26.7645 61.408C27.1485 60.768 27.7885 60.256 28.5565 59.872C40.4605 54.496 52.8765 50.656 65.8045 48.352L66.8285 48.224C67.0845 48.224 67.4685 48.352 67.9805 48.48C54.0285 63.968 37.3885 75.232 18.1885 82.272ZM7.6925 83.936C4.4925 83.936 2.9565 83.04 2.9565 81.376C2.9565 80.864 3.0845 80.352 3.3405 79.712C4.2365 77.536 5.5165 75.744 7.1805 74.08C11.2765 69.856 15.6285 66.656 20.2365 64.352C20.8765 63.84 21.6445 63.456 22.5405 63.2L22.6685 63.712C22.5405 64.224 22.4125 64.608 22.2845 64.864C22.1565 64.992 22.0285 65.12 22.0285 65.248C19.3405 70.24 17.0365 75.488 15.2445 80.864C14.6045 82.656 13.4525 83.552 11.6605 83.552C10.3805 83.808 8.9725 83.936 7.6925 83.936ZM85.3715 59.616C87.1635 59.36 89.4675 58.08 92.0275 55.904L96.1235 52.32C97.5315 55.264 99.4515 56.672 101.884 56.672C102.524 56.672 103.164 56.544 103.804 56.416C107.132 55.52 109.948 53.728 112.38 51.04C112.764 50.656 113.02 50.144 113.02 49.76C113.02 48.48 112.38 47.84 111.356 47.84C110.716 47.84 109.692 48.608 108.156 49.888C105.468 52.064 103.42 53.216 101.884 53.216C100.348 53.216 99.7075 52.448 99.7075 50.912C99.7075 49.248 100.348 47.584 101.628 45.792C102.652 44.128 103.164 43.104 103.164 42.72C103.164 42.336 103.036 41.952 102.652 41.696C102.268 41.312 101.884 41.184 101.628 41.184C101.372 41.184 100.988 41.312 100.732 41.568C100.092 42.08 99.3235 42.208 98.5555 42.208H97.5315C95.8675 42.208 94.4595 42.72 93.1795 43.744C88.9555 47.072 85.8835 51.168 83.7075 56.032C83.5795 56.544 83.4515 57.184 83.4515 57.824C83.4515 58.208 83.5795 58.592 84.0915 59.104C84.4755 59.488 84.8595 59.616 85.3715 59.616ZM86.0115 56.672C85.6275 56.672 85.4995 56.416 85.4995 56.032C85.4995 55.648 85.4995 55.392 85.6275 55.008C85.7555 54.624 85.8835 54.496 86.0115 54.368C87.6755 50.784 90.1075 47.968 93.4355 45.792C93.9475 45.536 94.4595 45.28 94.9715 45.152C95.3555 45.024 95.7395 45.024 96.1235 45.024C96.6355 45.152 96.8915 45.536 96.8915 46.048C96.8915 46.176 96.6355 46.56 96.2515 46.944C93.8195 50.4 91.0035 53.344 87.6755 55.776C87.0355 56.416 86.3955 56.672 86.0115 56.672ZM111.148 58.592C112.428 58.592 115.373 55.52 119.981 49.248L122.029 46.56C122.285 48.096 122.925 49.376 124.077 50.272C124.589 50.656 125.101 50.784 125.741 50.784C128.045 50.784 129.197 50.272 129.197 48.992C129.197 48.224 128.812 47.968 128.173 47.968C127.917 47.968 127.661 48.096 127.405 48.224C127.021 48.48 126.637 48.608 126.253 48.736C125.741 48.864 125.485 48.992 125.357 48.992C124.973 48.992 124.589 48.864 124.333 48.608C123.821 48.096 123.565 47.456 123.565 46.816C123.565 45.28 124.845 42.464 127.149 38.368L127.405 37.6C127.405 37.472 127.277 37.344 127.149 37.216C127.021 37.088 126.893 37.088 126.765 37.088C126.381 37.088 125.613 37.984 124.461 39.776C117.293 50.656 113.325 56.16 112.3 56.16C112.172 56.16 112.044 55.904 112.044 55.392C112.044 54.368 112.556 52.576 113.581 49.76C114.349 47.84 114.861 46.688 115.245 46.56C115.629 46.432 115.885 46.304 116.269 46.176C117.421 45.92 118.061 45.024 118.061 43.744C118.061 42.336 117.549 41.568 116.397 41.568C115.757 41.568 115.117 42.208 114.605 43.488C111.788 51.168 110.508 55.776 110.508 57.312C110.508 58.208 110.764 58.592 111.148 58.592ZM130.23 59.232C130.998 59.232 132.15 58.976 133.43 58.464C138.806 55.904 143.286 52.96 146.742 49.504C146.998 49.12 147.126 48.736 147.253 48.352C147.253 47.968 147.126 47.712 146.87 47.328C146.614 47.072 146.358 46.944 145.974 46.944C145.462 46.944 144.95 47.2 144.31 47.84C141.494 50.4 138.678 52.704 135.734 54.624C134.454 55.904 132.79 56.672 130.614 56.928C129.334 56.928 128.822 56.288 128.822 55.264C128.822 50.912 130.358 47.712 133.43 45.92C134.198 45.536 134.582 45.024 134.582 44.128C134.454 42.976 133.814 42.464 132.661 42.464C132.15 42.464 131.638 42.72 131.382 43.232C128.822 46.688 127.285 50.272 126.645 53.856C126.645 57.44 127.797 59.232 130.23 59.232ZM133.686 39.904C134.326 39.904 134.838 39.52 135.222 38.88C135.478 37.856 136.502 36.064 138.166 33.376L138.294 32.864C138.294 31.712 137.782 31.072 136.63 31.072C135.862 31.072 135.35 31.456 134.71 32.096C133.174 34.016 132.15 36.064 131.766 38.112C131.766 39.264 132.406 39.904 133.686 39.904ZM151.829 72.416C152.853 72.416 153.365 71.904 153.365 71.008C153.365 70.496 153.109 70.24 152.469 70.112C150.933 69.472 150.165 68.064 150.165 65.888C150.165 62.432 151.957 56.8 155.541 49.248C159.893 40.16 164.885 31.584 170.517 23.392L171.285 21.856C171.285 21.088 170.901 20.704 170.261 20.704C169.749 20.704 165.269 27.488 156.693 41.184C156.437 41.568 156.181 41.952 156.053 42.336C155.797 42.72 155.285 42.976 154.517 42.976C153.877 42.72 153.365 42.592 152.725 42.592C151.701 42.592 150.677 43.104 149.525 44.256C145.3 47.968 143.124 51.808 143.124 56.032C143.252 57.568 143.892 58.336 144.788 58.336C146.709 58.336 149.909 54.88 154.26 48.096L154.389 48.352L154.26 48.736C154.26 48.992 154.133 49.248 154.005 49.504C150.549 57.568 148.885 63.712 148.885 67.68C148.885 70.88 149.909 72.416 151.829 72.416ZM145.428 56.288C144.916 56.288 144.66 55.776 144.66 54.496C145.428 50.016 147.733 46.816 151.701 44.896C152.469 44.896 152.981 45.024 153.237 45.28C153.365 45.536 153.493 45.792 153.493 46.048C153.365 46.56 153.109 47.072 152.725 47.456C150.933 50.4 148.885 53.216 146.453 55.648C146.069 56.16 145.684 56.288 145.428 56.288ZM206.461 89.696C210.301 89.056 214.013 87.776 217.597 85.984C223.997 82.656 231.677 78.304 240.637 72.8C247.165 69.088 252.157 66.016 255.741 63.584C257.149 62.56 258.685 61.536 260.221 60.64C261.117 60 261.629 59.36 261.629 58.848C261.629 58.08 261.245 57.696 260.604 57.696C259.965 57.696 258.173 58.72 255.357 60.896C253.181 62.432 248.701 65.248 242.045 69.216L224.125 79.584C215.805 84.448 209.661 86.88 205.437 86.88C202.621 86.88 201.341 85.088 201.341 81.504C201.341 80.096 201.725 78.176 202.493 75.616C206.461 64.736 214.653 51.424 227.197 35.808C230.013 32.096 233.341 28.768 237.053 25.952C244.093 20.448 250.237 14.304 255.741 7.26399C256.893 5.728 257.533 4.576 257.661 3.936C257.661 3.55199 257.533 3.168 257.149 2.784C256.765 2.52799 256.509 2.39999 256.125 2.39999C254.077 2.52799 246.909 9.312 234.749 23.008C232.444 25.696 229.885 28 226.941 30.176C218.621 36.704 209.789 42.592 200.701 47.968C199.677 48.608 199.293 49.12 199.293 49.888C199.293 51.04 199.805 51.552 200.701 51.552C201.469 51.552 202.237 51.168 203.005 50.528C211.708 44.768 217.341 40.928 219.901 39.008C220.541 38.368 221.437 37.984 222.333 37.984C215.165 47.072 208.893 56.672 203.517 66.784C200.317 72.8 198.653 77.792 198.653 81.504C198.653 87.008 201.085 89.696 205.693 89.696H206.461ZM268.766 58.336C271.07 58.336 273.63 57.312 276.574 55.136C278.238 53.984 279.902 52.832 281.566 51.936C284.51 50.144 286.174 48.992 286.302 48.48C286.302 47.328 285.918 46.816 285.022 46.816L283.102 48.096C283.102 48.224 283.102 48.224 282.974 48.224L279.39 51.68C277.086 53.856 274.398 55.648 271.454 56.8C270.814 57.056 270.174 57.184 269.534 57.184C267.102 57.184 265.95 56.032 265.95 53.728C265.95 53.344 265.95 52.96 266.078 52.576C266.206 52.32 266.206 52.064 266.206 51.68C266.334 50.784 266.846 50.272 267.614 50.272L270.174 50.912C271.966 50.784 273.502 50.272 274.91 49.12C276.574 47.84 277.47 46.304 277.47 44.384C277.47 42.72 276.702 41.824 275.294 41.824C273.63 41.824 271.582 42.848 269.15 44.896C268.254 45.92 267.486 46.56 266.718 46.816C265.822 47.072 265.438 47.456 265.438 48.096L265.566 49.12C265.566 50.016 265.438 50.912 265.181 51.808C264.797 52.704 264.669 53.6 264.669 54.368C264.669 57.056 266.078 58.336 268.766 58.336ZM270.686 47.968C269.661 47.84 269.15 47.456 269.15 46.944C269.15 46.816 269.278 46.56 269.406 46.432C271.07 44.512 272.606 43.616 274.142 43.616C274.654 43.616 274.782 43.744 274.782 44.256C274.782 45.28 274.398 46.176 273.502 46.944C272.606 47.584 271.71 47.968 270.686 47.968ZM288.641 58.336C290.945 58.336 293.505 57.312 296.449 55.136C298.113 53.984 299.777 52.832 301.441 51.936C304.385 50.144 306.049 48.992 306.177 48.48C306.177 47.328 305.793 46.816 304.897 46.816L302.977 48.096C302.977 48.224 302.977 48.224 302.849 48.224L299.265 51.68C296.961 53.856 294.273 55.648 291.329 56.8C290.689 57.056 290.049 57.184 289.409 57.184C286.977 57.184 285.825 56.032 285.825 53.728C285.825 53.344 285.825 52.96 285.953 52.576C286.081 52.32 286.081 52.064 286.081 51.68C286.209 50.784 286.721 50.272 287.489 50.272L290.049 50.912C291.841 50.784 293.377 50.272 294.785 49.12C296.449 47.84 297.345 46.304 297.345 44.384C297.345 42.72 296.577 41.824 295.169 41.824C293.505 41.824 291.457 42.848 289.025 44.896C288.129 45.92 287.361 46.56 286.593 46.816C285.697 47.072 285.312 47.456 285.312 48.096L285.441 49.12C285.441 50.016 285.312 50.912 285.056 51.808C284.672 52.704 284.544 53.6 284.544 54.368C284.544 57.056 285.953 58.336 288.641 58.336ZM290.561 47.968C289.536 47.84 289.025 47.456 289.025 46.944C289.025 46.816 289.153 46.56 289.281 46.432C290.945 44.512 292.481 43.616 294.017 43.616C294.529 43.616 294.657 43.744 294.657 44.256C294.657 45.28 294.273 46.176 293.377 46.944C292.481 47.584 291.585 47.968 290.561 47.968Z" fill="black"/>
</svg>
