<svg width="810" height="65" viewBox="0 0 810 65" fill="none" xmlns="http://www.w3.org/2000/svg">
<path d="M82.0993 59H88.0513V17.976H100.339V15.288H69.8113V17.976H82.0993V59ZM111.386 41.272C112.474 41.208 113.562 41.208 114.714 41.208C115.802 41.208 116.762 41.208 117.722 41.144L130.138 59H137.37L124.122 40.248C133.146 38.136 135.77 32.824 135.77 27.832V27.64C135.706 21.368 129.754 15.288 120.282 15.288H105.434V59H111.386V41.272ZM111.386 17.976H117.338C124.698 17.976 129.178 23.032 129.178 28.152C129.178 33.144 126.042 38.456 114.714 38.456C113.626 38.456 112.538 38.52 111.386 38.52V17.976ZM157.615 59.96C166.255 59.96 173.295 55.672 173.295 45.624V15.288H167.343V48.824C167.343 53.304 162.607 57.272 157.615 57.272C152.623 57.272 147.887 53.304 147.887 48.824V15.288H141.871V45.624C141.871 55.928 148.975 59.96 157.615 59.96ZM207.62 59V56.248H187.012V37.112H204.292V34.36H187.012V17.976H207.62V15.288H180.996V59H207.62ZM238.323 41.272C239.411 41.208 240.499 41.208 241.651 41.208C242.739 41.208 243.699 41.208 244.659 41.144L257.075 59H264.307L251.059 40.248C260.083 38.136 262.707 32.824 262.707 27.832V27.64C262.643 21.368 256.691 15.288 247.219 15.288H232.371V59H238.323V41.272ZM238.323 17.976H244.275C251.635 17.976 256.115 23.032 256.115 28.152C256.115 33.144 252.979 38.456 241.651 38.456C240.563 38.456 239.475 38.52 238.323 38.52V17.976ZM295.433 59V56.248H274.825V37.112H292.105V34.36H274.825V17.976H295.433V15.288H268.809V59H295.433ZM301.809 15.288V59H307.825V37.112H325.105V34.36H307.825V17.976H328.369V15.288H301.809ZM359.465 59V56.248H340.073V15.288H334.121V59H359.465ZM392.245 59V56.248H371.637V37.112H388.917V34.36H371.637V17.976H392.245V15.288H365.621V59H392.245ZM433.245 49.4C429.917 54.392 425.693 57.272 420.189 57.272C409.309 57.272 404.317 47.736 404.317 37.112C404.317 26.68 411.229 17.4 420.317 17.4H420.701C428.957 17.592 431.261 22.712 432.157 24.824L433.501 23.544C430.429 17.4 425.565 14.648 418.461 14.648C404.701 14.648 397.661 25.336 397.661 37.112C397.661 49.208 404.765 59.96 419.293 59.96C426.589 59.96 431.325 55.352 433.821 51L433.245 49.4ZM449.599 59H455.551V17.976H467.839V15.288H437.311V17.976H449.599V59ZM479.526 15.288H473.574V59H479.526V15.288ZM526.288 37.112C526.288 25.08 518.928 14.648 506.192 14.648C493.456 14.648 485.904 25.08 485.904 37.112C485.904 49.208 493.584 59.96 506.064 59.96C518.608 59.96 526.288 49.208 526.288 37.112ZM491.856 37.112C491.856 26.552 497.232 17.4 506.192 17.4C515.152 17.4 520.272 26.552 520.272 37.112C520.272 47.736 514.896 57.272 506.064 57.272C497.296 57.272 491.856 47.736 491.856 37.112ZM535.436 18.424L555.468 59H562.7L562.636 58.936L562.7 59V15.288H559.948V55.352L540.172 15.288H532.684V59H535.436V18.424ZM599.1 46.904C598.524 32.504 577.532 36.792 577.532 25.272C577.532 24.76 577.596 24.248 577.66 23.672C578.3 19.256 582.588 17.464 586.812 17.464H587.644C591.996 17.656 594.876 20.92 595.196 24.568L597.244 23.736C596.22 16.76 589.756 14.712 583.868 14.648C578.748 14.648 570.236 17.08 570.236 27.256C570.236 41.336 592.956 38.52 592.956 49.592V49.848C592.764 55.16 587.388 57.016 583.1 57.016C572.86 56.312 572.604 48.376 572.604 47.48V47.416L569.404 48.632C569.98 56.312 576.508 59.896 583.292 59.96H583.484C591.1 59.96 599.1 55.544 599.1 47.352V46.904ZM631.224 18.488L644.6 59H651.768L664.312 21.176L670.328 59H676.344L669.304 15.288H663.096L649.784 55.608L636.472 15.288H629.048L622.264 59H625.016L631.224 18.488ZM708.745 59V56.248H688.137V37.112H705.417V34.36H688.137V17.976H708.745V15.288H682.121V59H708.745ZM728.497 59C740.529 59 750.385 49.144 750.385 37.112C750.385 25.144 740.529 15.288 728.497 15.288H715.121V59H728.497ZM721.137 17.976H725.105C735.281 17.976 743.601 26.296 743.601 36.472V37.816C743.601 47.992 735.281 56.248 725.105 56.248H721.137V17.976ZM763.713 15.288H757.761V59H763.713V15.288ZM775.595 47.736H794.859L798.571 59H804.843L790.443 15.288H783.275L768.811 59H771.883L775.595 47.736ZM785.259 18.68L793.963 45.048H776.491L785.259 18.68Z" fill="black"/>
<path d="M36.7465 6.28485C36.2183 6.19469 35.6891 6.43877 35.4215 6.89505L27.1343 21.015C26.9064 21.4044 26.9064 21.884 27.1343 22.2726C27.362 22.6619 27.7847 22.9013 28.2412 22.9013H55.4301C55.8682 22.9013 56.2766 22.6805 56.5098 22.3154C56.7447 21.9506 56.7718 21.4933 56.5834 21.1034C52.8054 13.2943 45.3891 7.75431 36.7465 6.28485ZM30.4559 20.3865L37.1812 8.92743C43.9598 10.3316 49.8239 14.5165 53.3086 20.3865H30.4559Z" fill="black"/>
<path d="M30.4559 20.3865L37.1812 8.92743C43.9598 10.3316 49.8239 14.5165 53.3086 20.3865H30.4559Z" fill="url(#paint0_linear_34_2)"/>
<path d="M30.8683 6.08363C30.159 6.02823 29.4376 6 28.7261 6C20.6467 6 13.0564 9.4893 7.90216 15.5726C7.55916 15.9779 7.50921 16.5499 7.77781 17.0062L16.0655 31.1273C16.2924 31.5159 16.7159 31.756 17.1716 31.756C17.6283 31.756 18.0507 31.5159 18.2787 31.1273L31.8726 7.96652C32.0921 7.59255 32.1024 7.13418 31.8973 6.75237C31.6948 6.37057 31.3051 6.11812 30.8683 6.08363ZM17.1721 27.9832L10.4461 16.5233C15.0647 11.4542 21.6255 8.55033 28.5986 8.51531L17.1721 27.9832Z" fill="black"/>
<path d="M17.1721 27.9832L10.4461 16.5233C15.0647 11.4542 21.6255 8.55033 28.5986 8.51531L17.1721 27.9832Z" fill="url(#paint1_linear_34_2)"/>
<path d="M5.88859 19.935C5.44251 19.9222 5.03282 20.1232 4.78467 20.4786C-0.201934 27.6027 -1.37173 36.6895 1.65706 44.7866C1.84197 45.2813 2.31993 45.6098 2.85688 45.6098L19.4331 45.6108C19.8901 45.6108 20.312 45.3714 20.5405 44.9818C20.769 44.5932 20.769 44.1134 20.5405 43.7243L6.94467 20.5635C6.72601 20.1896 6.3267 19.9523 5.88859 19.935ZM3.76578 43.0945C1.61216 36.6189 2.36536 29.5311 5.79081 23.6274L17.2181 43.0955L3.76578 43.0945Z" fill="black"/>
<path d="M3.76578 43.0945C1.61216 36.6189 2.36536 29.5311 5.79081 23.6274L17.2181 43.0955L3.76578 43.0945Z" fill="url(#paint2_linear_34_2)"/>
<path d="M33.8678 48.7253C33.6409 48.337 33.2174 48.0971 32.7615 48.0971L5.57255 48.0966C5.13285 48.0966 4.72474 48.3176 4.49121 48.6825C4.25634 49.0473 4.22925 49.5046 4.41762 49.8948C8.19696 57.7041 15.6122 63.2446 24.2556 64.713C24.3282 64.7259 24.401 64.7313 24.4727 64.7313C24.9236 64.7313 25.3497 64.4961 25.5806 64.1026L33.8678 49.9836C34.0965 49.5945 34.0965 49.1152 33.8678 48.7253ZM23.8202 62.071C17.0416 60.6668 11.1774 56.4824 7.6927 50.6116L30.5473 50.6121L23.8202 62.071Z" fill="black"/>
<path d="M23.8202 62.071C17.0416 60.6668 11.1774 56.4824 7.6927 50.6116L30.5473 50.6121L23.8202 62.071Z" fill="url(#paint3_linear_34_2)"/>
<path d="M30.1339 64.9151C30.8432 64.9718 31.564 65 32.2771 65C40.3552 65 47.9452 61.5102 53.1003 55.4264C53.4433 55.0218 53.4935 54.4498 53.2252 53.9924L44.9374 39.8727C44.71 39.4844 44.2884 39.244 43.8309 39.244C43.3742 39.244 42.9523 39.4844 42.7238 39.8727L29.1285 63.0335C28.9093 63.4074 28.9005 63.8653 29.1041 64.2476C29.3086 64.6297 29.6965 64.8819 30.1339 64.9151ZM43.8309 43.0168L50.5561 54.4762C45.9361 59.5465 39.3778 62.4507 32.4033 62.4841L43.8309 43.0168Z" fill="black"/>
<path d="M43.8309 43.0168L50.5561 54.4762C45.9361 59.5465 39.3778 62.4507 32.4033 62.4841L43.8309 43.0168Z" fill="url(#paint4_linear_34_2)"/>
<path d="M55.1109 51.0647C55.1284 51.0652 55.1446 51.0652 55.1621 51.0652C55.5816 51.0652 55.9754 50.8627 56.2148 50.5211C61.2019 43.3973 62.3712 34.311 59.3435 26.2129C59.1588 25.7185 58.6795 25.3894 58.1436 25.3894L41.5679 25.3889C41.1104 25.3889 40.6888 25.6288 40.46 26.0177C40.2321 26.4068 40.2321 26.8863 40.46 27.2752L54.0545 50.4362C54.2734 50.8104 54.6727 51.0475 55.1109 51.0647ZM57.2339 27.9045C59.3875 34.3808 58.6362 41.4694 55.2089 47.3724L43.7832 27.904L57.2339 27.9045Z" fill="black"/>
<path d="M57.2339 27.9045C59.3875 34.3808 58.6362 41.4694 55.2089 47.3724L43.7832 27.904L57.2339 27.9045Z" fill="url(#paint5_linear_34_2)"/>
<defs>
<linearGradient id="paint0_linear_34_2" x1="41.8355" y1="6.2663" x2="41.8355" y2="22.9013" gradientUnits="userSpaceOnUse">
<stop stop-color="#72255D"/>
<stop offset="1" stop-color="#F21354"/>
</linearGradient>
<linearGradient id="paint1_linear_34_2" x1="19.8252" y1="6" x2="19.8252" y2="31.756" gradientUnits="userSpaceOnUse">
<stop stop-color="#EF7C75"/>
<stop offset="1" stop-color="#D83630"/>
</linearGradient>
<linearGradient id="paint2_linear_34_2" x1="10.3559" y1="19.9344" x2="10.3559" y2="45.6108" gradientUnits="userSpaceOnUse">
<stop stop-color="#E77538"/>
<stop offset="1" stop-color="#E09A45"/>
</linearGradient>
<linearGradient id="paint3_linear_34_2" x1="19.1664" y1="48.0966" x2="19.1664" y2="64.7313" gradientUnits="userSpaceOnUse">
<stop stop-color="#6EA54A"/>
<stop offset="1" stop-color="#97C356"/>
</linearGradient>
<linearGradient id="paint4_linear_34_2" x1="41.1771" y1="39.244" x2="41.1771" y2="65" gradientUnits="userSpaceOnUse">
<stop stop-color="#377E79"/>
<stop offset="1" stop-color="#4CA89B"/>
</linearGradient>
<linearGradient id="paint5_linear_34_2" x1="50.6445" y1="25.3889" x2="50.6445" y2="51.0652" gradientUnits="userSpaceOnUse">
<stop stop-color="#4081BE"/>
<stop offset="1" stop-color="#70B4E0"/>
</linearGradient>
</defs>
</svg>
