<svg width="736" height="46" viewBox="0 0 736 46" fill="none" xmlns="http://www.w3.org/2000/svg">
<path d="M13.0993 45H19.0513V3.976H31.3393V1.288H0.81125V3.976H13.0993V45ZM42.3858 27.272C43.4738 27.208 44.5618 27.208 45.7138 27.208C46.8018 27.208 47.7618 27.208 48.7218 27.144L61.1378 45H68.3698L55.1218 26.248C64.1458 24.136 66.7698 18.824 66.7698 13.832V13.64C66.7058 7.368 60.7538 1.288 51.2818 1.288H36.4338V45H42.3858V27.272ZM42.3858 3.976H48.3378C55.6978 3.976 60.1778 9.032 60.1778 14.152C60.1778 19.144 57.0418 24.456 45.7138 24.456C44.6258 24.456 43.5378 24.52 42.3858 24.52V3.976ZM88.6153 45.96C97.2553 45.96 104.295 41.672 104.295 31.624V1.288H98.3433V34.824C98.3433 39.304 93.6073 43.272 88.6153 43.272C83.6233 43.272 78.8873 39.304 78.8873 34.824V1.288H72.8713V31.624C72.8713 41.928 79.9753 45.96 88.6153 45.96ZM138.62 45V42.248H118.012V23.112H135.292V20.36H118.012V3.976H138.62V1.288H111.996V45H138.62ZM169.323 27.272C170.411 27.208 171.499 27.208 172.651 27.208C173.739 27.208 174.699 27.208 175.659 27.144L188.075 45H195.307L182.059 26.248C191.083 24.136 193.707 18.824 193.707 13.832V13.64C193.643 7.368 187.691 1.288 178.219 1.288H163.371V45H169.323V27.272ZM169.323 3.976H175.275C182.635 3.976 187.115 9.032 187.115 14.152C187.115 19.144 183.979 24.456 172.651 24.456C171.563 24.456 170.475 24.52 169.323 24.52V3.976ZM226.433 45V42.248H205.825V23.112H223.105V20.36H205.825V3.976H226.433V1.288H199.809V45H226.433ZM232.809 1.288V45H238.825V23.112H256.105V20.36H238.825V3.976H259.369V1.288H232.809ZM290.465 45V42.248H271.073V1.288H265.121V45H290.465ZM323.245 45V42.248H302.637V23.112H319.917V20.36H302.637V3.976H323.245V1.288H296.621V45H323.245ZM364.245 35.4C360.917 40.392 356.693 43.272 351.189 43.272C340.309 43.272 335.317 33.736 335.317 23.112C335.317 12.68 342.229 3.4 351.317 3.4H351.701C359.957 3.592 362.261 8.712 363.157 10.824L364.501 9.544C361.429 3.4 356.565 0.647999 349.461 0.647999C335.701 0.647999 328.661 11.336 328.661 23.112C328.661 35.208 335.765 45.96 350.293 45.96C357.589 45.96 362.325 41.352 364.821 37L364.245 35.4ZM380.599 45H386.551V3.976H398.839V1.288H368.311V3.976H380.599V45ZM410.526 1.288H404.574V45H410.526V1.288ZM457.288 23.112C457.288 11.08 449.928 0.647999 437.192 0.647999C424.456 0.647999 416.904 11.08 416.904 23.112C416.904 35.208 424.584 45.96 437.064 45.96C449.608 45.96 457.288 35.208 457.288 23.112ZM422.856 23.112C422.856 12.552 428.232 3.4 437.192 3.4C446.152 3.4 451.272 12.552 451.272 23.112C451.272 33.736 445.896 43.272 437.064 43.272C428.296 43.272 422.856 33.736 422.856 23.112ZM466.436 4.424L486.468 45H493.7L493.636 44.936L493.7 45V1.288H490.948V41.352L471.172 1.288H463.684V45H466.436V4.424ZM530.1 32.904C529.524 18.504 508.532 22.792 508.532 11.272C508.532 10.76 508.596 10.248 508.66 9.672C509.3 5.256 513.588 3.464 517.812 3.464H518.644C522.996 3.656 525.876 6.92 526.196 10.568L528.244 9.736C527.22 2.76 520.756 0.711998 514.868 0.647999C509.748 0.647999 501.236 3.08 501.236 13.256C501.236 27.336 523.956 24.52 523.956 35.592V35.848C523.764 41.16 518.388 43.016 514.1 43.016C503.86 42.312 503.604 34.376 503.604 33.48V33.416L500.404 34.632C500.98 42.312 507.508 45.896 514.292 45.96H514.484C522.1 45.96 530.1 41.544 530.1 33.352V32.904ZM562.224 4.488L575.6 45H582.768L595.312 7.176L601.328 45H607.344L600.304 1.288H594.096L580.784 41.608L567.472 1.288H560.048L553.264 45H556.016L562.224 4.488ZM639.745 45V42.248H619.137V23.112H636.417V20.36H619.137V3.976H639.745V1.288H613.121V45H639.745ZM659.497 45C671.529 45 681.385 35.144 681.385 23.112C681.385 11.144 671.529 1.288 659.497 1.288H646.121V45H659.497ZM652.137 3.976H656.105C666.281 3.976 674.601 12.296 674.601 22.472V23.816C674.601 33.992 666.281 42.248 656.105 42.248H652.137V3.976ZM694.713 1.288H688.761V45H694.713V1.288ZM706.595 33.736H725.859L729.571 45H735.843L721.443 1.288H714.275L699.811 45H702.883L706.595 33.736ZM716.259 4.68L724.963 31.048H707.491L716.259 4.68Z" fill="white"/>
</svg>
