<svg width="61" height="59" viewBox="0 0 61 59" fill="none" xmlns="http://www.w3.org/2000/svg">
<path d="M36.7465 0.284847C36.2183 0.194688 35.6891 0.438769 35.4215 0.895054L27.1343 15.015C26.9064 15.4044 26.9064 15.884 27.1343 16.2726C27.362 16.6619 27.7847 16.9013 28.2412 16.9013H55.4301C55.8682 16.9013 56.2766 16.6805 56.5098 16.3154C56.7447 15.9506 56.7718 15.4933 56.5834 15.1034C52.8054 7.29427 45.3891 1.75431 36.7465 0.284847ZM30.4559 14.3865L37.1812 2.92743C43.9598 4.33156 49.8239 8.51652 53.3086 14.3865H30.4559Z" fill="black"/>
<path d="M30.4559 14.3865L37.1812 2.92743C43.9598 4.33156 49.8239 8.51652 53.3086 14.3865H30.4559Z" fill="url(#paint0_linear_35_6)"/>
<path d="M30.8683 0.0836279C30.1589 0.0282257 29.4376 0 28.7261 0C20.6467 0 13.0564 3.4893 7.90213 9.57256C7.55913 9.97789 7.50918 10.5499 7.77778 11.0062L16.0655 25.1273C16.2924 25.5159 16.7159 25.756 17.1716 25.756C17.6283 25.756 18.0507 25.5159 18.2786 25.1273L31.8726 1.96652C32.092 1.59255 32.1024 1.13418 31.8973 0.752372C31.6948 0.370567 31.3051 0.118124 30.8683 0.0836279ZM17.1721 21.9832L10.446 10.5233C15.0647 5.45425 21.6255 2.55033 28.5986 2.51531L17.1721 21.9832Z" fill="black"/>
<path d="M17.1721 21.9832L10.446 10.5233C15.0647 5.45425 21.6255 2.55033 28.5986 2.51531L17.1721 21.9832Z" fill="url(#paint1_linear_35_6)"/>
<path d="M5.88859 13.935C5.44251 13.9222 5.03282 14.1232 4.78467 14.4786C-0.201934 21.6027 -1.37173 30.6895 1.65706 38.7866C1.84197 39.2813 2.31993 39.6098 2.85688 39.6098L19.4331 39.6108C19.8901 39.6108 20.312 39.3714 20.5405 38.9818C20.769 38.5932 20.769 38.1134 20.5405 37.7243L6.94467 14.5635C6.72601 14.1896 6.3267 13.9523 5.88859 13.935ZM3.76578 37.0945C1.61216 30.6189 2.36536 23.5311 5.79081 17.6274L17.2181 37.0955L3.76578 37.0945Z" fill="black"/>
<path d="M3.76578 37.0945C1.61216 30.6189 2.36536 23.5311 5.79081 17.6274L17.2181 37.0955L3.76578 37.0945Z" fill="url(#paint2_linear_35_6)"/>
<path d="M33.8678 42.7253C33.6409 42.337 33.2174 42.0971 32.7615 42.0971L5.57255 42.0966C5.13285 42.0966 4.72474 42.3176 4.49121 42.6825C4.25634 43.0473 4.22925 43.5046 4.41762 43.8948C8.19696 51.7041 15.6122 57.2446 24.2556 58.713C24.3282 58.7259 24.401 58.7313 24.4727 58.7313C24.9236 58.7313 25.3497 58.4961 25.5806 58.1026L33.8678 43.9836C34.0965 43.5945 34.0965 43.1152 33.8678 42.7253ZM23.8202 56.071C17.0416 54.6668 11.1774 50.4824 7.6927 44.6116L30.5473 44.6121L23.8202 56.071Z" fill="black"/>
<path d="M23.8202 56.071C17.0416 54.6668 11.1774 50.4824 7.6927 44.6116L30.5473 44.6121L23.8202 56.071Z" fill="url(#paint3_linear_35_6)"/>
<path d="M30.1339 58.9151C30.8432 58.9718 31.564 59 32.2771 59C40.3552 59 47.9452 55.5102 53.1003 49.4264C53.4433 49.0218 53.4935 48.4498 53.2252 47.9924L44.9374 33.8727C44.71 33.4844 44.2884 33.244 43.8309 33.244C43.3742 33.244 42.9523 33.4844 42.7238 33.8727L29.1285 57.0335C28.9093 57.4074 28.9005 57.8653 29.1041 58.2476C29.3086 58.6297 29.6965 58.8819 30.1339 58.9151ZM43.8309 37.0168L50.5561 48.4762C45.9361 53.5465 39.3778 56.4507 32.4033 56.4842L43.8309 37.0168Z" fill="black"/>
<path d="M43.8309 37.0168L50.5561 48.4762C45.9361 53.5465 39.3778 56.4507 32.4033 56.4842L43.8309 37.0168Z" fill="url(#paint4_linear_35_6)"/>
<path d="M55.1109 45.0647C55.1284 45.0652 55.1446 45.0652 55.1621 45.0652C55.5816 45.0652 55.9754 44.8627 56.2148 44.5211C61.2019 37.3973 62.3712 28.311 59.3435 20.2129C59.1588 19.7185 58.6795 19.3894 58.1436 19.3894L41.5679 19.3889C41.1104 19.3889 40.6888 19.6288 40.46 20.0177C40.2321 20.4068 40.2321 20.8863 40.46 21.2752L54.0545 44.4362C54.2734 44.8104 54.6727 45.0475 55.1109 45.0647ZM57.2339 21.9045C59.3875 28.3808 58.6362 35.4694 55.2089 41.3724L43.7832 21.904L57.2339 21.9045Z" fill="black"/>
<path d="M57.2339 21.9045C59.3875 28.3808 58.6362 35.4694 55.2089 41.3724L43.7832 21.904L57.2339 21.9045Z" fill="url(#paint5_linear_35_6)"/>
<defs>
<linearGradient id="paint0_linear_35_6" x1="41.8355" y1="0.266296" x2="41.8355" y2="16.9013" gradientUnits="userSpaceOnUse">
<stop stop-color="#72255D"/>
<stop offset="1" stop-color="#F21354"/>
</linearGradient>
<linearGradient id="paint1_linear_35_6" x1="19.8252" y1="0" x2="19.8252" y2="25.756" gradientUnits="userSpaceOnUse">
<stop stop-color="#EF7C75"/>
<stop offset="1" stop-color="#D83630"/>
</linearGradient>
<linearGradient id="paint2_linear_35_6" x1="10.3559" y1="13.9344" x2="10.3559" y2="39.6108" gradientUnits="userSpaceOnUse">
<stop stop-color="#E77538"/>
<stop offset="1" stop-color="#E09A45"/>
</linearGradient>
<linearGradient id="paint3_linear_35_6" x1="19.1664" y1="42.0966" x2="19.1664" y2="58.7313" gradientUnits="userSpaceOnUse">
<stop stop-color="#6EA54A"/>
<stop offset="1" stop-color="#97C356"/>
</linearGradient>
<linearGradient id="paint4_linear_35_6" x1="41.1771" y1="33.244" x2="41.1771" y2="59" gradientUnits="userSpaceOnUse">
<stop stop-color="#377E79"/>
<stop offset="1" stop-color="#4CA89B"/>
</linearGradient>
<linearGradient id="paint5_linear_35_6" x1="50.6445" y1="19.3889" x2="50.6445" y2="45.0652" gradientUnits="userSpaceOnUse">
<stop stop-color="#4081BE"/>
<stop offset="1" stop-color="#70B4E0"/>
</linearGradient>
</defs>
</svg>
